<svg width="140" height="141" viewBox="0 0 140 141" fill="none" xmlns="http://www.w3.org/2000/svg">
<path d="M2.54923 119.473C7.86295 132.44 16.5271 135.139 22.6186 132.44C34.3994 127.22 65.0019 121.388 96.4317 135.097C138.059 153.253 146.916 125.86 133.63 98.1509C120.345 70.4418 115.842 42.4204 131.158 26.9822C146.473 11.544 126.431 -12.607 90.8393 12.5325C67.8385 28.7785 50.9585 25.161 41.894 20.5683C33.351 16.2399 23.8502 11.7147 14.9489 15.2479C4.14803 19.5353 -0.107829 28.8306 16.3252 49.5965C39.6121 79.0234 -9.3622 90.4084 2.54923 119.473Z" fill="#DEE9FF"/>
<path d="M24.1849 56.3076H106.883V119.907C106.883 120.037 106.831 120.161 106.74 120.252C106.648 120.344 106.524 120.396 106.394 120.396H24.6733C24.5438 120.396 24.4196 120.344 24.328 120.252C24.2364 120.161 24.1849 120.037 24.1849 119.907V56.3076Z" fill="#A2BDFF"/>
<path d="M86.1365 31.3846H47.6838L24.1849 56.3077H106.883L86.1365 31.3846Z" fill="#418DF9"/>
<path d="M32.0179 21.4153L47.6838 31.3846L24.1849 56.3076L6.38269 42.7779L32.0179 21.4153Z" fill="#699CFF"/>
<path d="M101.802 21.4153L86.1365 31.3846L106.883 56.3076L127.437 42.7779L101.802 21.4153Z" fill="#699CFF"/>
<path d="M57.7862 21.925C58.2283 21.7154 58.5722 21.343 58.7462 20.8858C58.9201 20.4285 58.9106 19.9216 58.7196 19.4712L51.6722 2.85333C51.5724 2.61794 51.426 2.40517 51.2418 2.22782C51.0577 2.05046 50.8395 1.91217 50.6006 1.82127C50.3616 1.73037 50.1067 1.68874 49.8512 1.69888C49.5958 1.70901 49.345 1.77071 49.114 1.88025L47.7562 2.52405C47.5252 2.63359 47.3187 2.78871 47.1492 2.9801C46.9797 3.17148 46.8506 3.39516 46.7697 3.63771C46.6889 3.88025 46.6579 4.13664 46.6786 4.39146C46.6994 4.64629 46.7714 4.89429 46.8905 5.12055L55.2956 21.0945C55.5234 21.5275 55.9098 21.8557 56.3739 22.0105C56.8381 22.1652 57.3441 22.1346 57.7862 21.925Z" fill="#418DF9"/>
<path d="M66.6218 20.314C66.9418 20.2912 67.2406 20.1456 67.4557 19.9077C67.6709 19.6698 67.7858 19.358 67.7765 19.0374L67.4284 7.20692C67.4234 7.03935 67.3847 6.8745 67.3144 6.72229C67.2441 6.57008 67.1438 6.43365 67.0195 6.32121C66.8951 6.20876 66.7493 6.12262 66.5908 6.06796C66.4323 6.0133 66.2644 5.99124 66.0972 6.00313L65.1143 6.07317C64.9471 6.08507 64.7841 6.13064 64.635 6.20715C64.4859 6.28365 64.3538 6.38952 64.2466 6.51837C64.1394 6.64723 64.0594 6.79642 64.0114 6.95698C63.9634 7.11753 63.9483 7.28615 63.9671 7.45268L65.2981 19.2132C65.3341 19.532 65.492 19.8246 65.7387 20.0298C65.9854 20.2349 66.3018 20.3367 66.6218 20.314Z" fill="#418DF9"/>
<path d="M73.4428 24.6873C74.3229 25.1961 75.5583 24.7292 76.2436 23.6286L88.4109 4.08772C89.1377 2.92036 88.9655 1.49757 88.0321 0.9579L86.731 0.205776C85.7976 -0.333996 84.4786 0.226483 83.8295 1.43877L72.9631 21.7317C72.3511 22.8747 72.5627 24.1784 73.4428 24.6873Z" fill="#418DF9"/>
</svg>
