<svg width="196" height="196" viewBox="0 0 196 196" fill="none" xmlns="http://www.w3.org/2000/svg">
<path d="M175.318 160.085C169.244 160.846 154.131 166.267 150.426 168.548C146.721 170.83 147.102 175.003 152.513 175.1C158.88 175.198 175.981 169.25 179.316 165.789C182.065 163.03 181.022 159.335 175.318 160.085Z" fill="#FF7E5B" fill-opacity="0.5"/>
<path d="M41.3445 152.392C27.753 163.507 34.0223 186.41 52.7423 186.127C69.9413 186.888 78.2093 166.364 67.4745 154.099C64.1426 150.562 59.5941 148.419 54.7453 148.103C49.8966 147.786 45.1081 149.319 41.3445 152.392ZM64.335 180.667C59.0115 184.85 47.5163 186.469 40.1063 179.146C30.4148 168.421 38.868 149.789 53.7563 150.072C70.6043 150.296 75.5475 171.775 64.335 180.706V180.667Z" fill="#FF7E5B" fill-opacity="0.5"/>
<path d="M59.9659 154.859C57.8697 155.337 53.9794 169.591 52.1659 169.689C47.5054 169.874 41.8992 160.465 40.2807 169.591C39.9004 171.395 51.4054 178.708 54.6327 178.708C57.8599 178.708 66.6642 159.256 65.7477 157.521C65.1332 156.577 64.2642 155.826 63.2411 155.355C62.2181 154.884 61.0826 154.712 59.9659 154.859Z" fill="#FF7E5B" fill-opacity="0.5"/>
<path d="M105.762 93.951C104.436 94.614 101.492 106.304 100.254 106.684C98.5475 106.879 95.9735 104.062 94.1697 103.935C93.1265 103.857 92.366 105.544 92.4635 107.26C92.561 108.586 99.7662 112.905 102.438 112.388C104.622 111.969 110.52 96.33 109.76 95.1892C109.313 94.5833 108.684 94.1363 107.965 93.9135C107.245 93.6907 106.474 93.7039 105.762 93.951Z" fill="#FF7E5B" fill-opacity="0.5"/>
<path d="M92.7474 81.9782C90.5634 82.0757 85.7177 76.372 85.0547 82.3585C85.1522 83.6942 92.1819 87.7795 94.2684 87.487C96.8327 87.1067 102.536 71.6237 101.776 70.483C101.015 69.3422 99.4164 68.4062 98.4512 69.2447C97.3299 70.2197 93.9857 81.598 92.7474 81.9782Z" fill="#FF7E5B" fill-opacity="0.5"/>
<path d="M86.6625 62.6922C89.334 62.3704 95.3108 46.8192 94.5503 45.6784C93.7898 44.5377 91.128 44.3524 89.802 45.3957C88.6613 46.3707 86.1068 56.9202 84.8588 57.1834C82.782 57.6124 77.166 51.6649 77.166 57.4662C77.166 58.7044 84.6735 62.9262 86.6625 62.6922Z" fill="#FF7E5B" fill-opacity="0.5"/>
<path d="M150.234 112.008C147.952 112.291 141.966 105.495 140.074 105.544C138.183 105.592 136.272 108.469 135.989 111.394C135.706 114.319 148.664 125.56 153.539 124.8C158.677 124.039 169.695 96.0959 168.846 93.2489C167.998 90.4019 163.806 89.0661 161.622 90.2069C158.697 91.7669 152.515 111.725 150.234 112.008Z" fill="#FF7E5B" fill-opacity="0.5"/>
<path d="M155.838 126.828C148.692 131.118 134.895 128.622 131.99 119.516C130.818 116.737 130.459 113.682 130.956 110.707C131.453 107.732 132.785 104.96 134.797 102.712C136.808 100.465 139.417 98.8347 142.318 98.012C145.22 97.1893 148.296 97.2079 151.188 98.0656C153.849 98.8261 153.937 96.8371 151.753 96.2618C135.5 91.7183 121.743 109.912 132.468 124.196C135.607 128.378 142.062 130.66 146.527 130.757C157.437 131.06 159.631 124.556 155.838 126.828Z" fill="#FF7E5B" fill-opacity="0.5"/>
<path d="M93.4096 180.044C91.3231 179.468 82.4896 184.031 83.1526 186.41C83.7181 188.36 92.4054 187.034 94.5504 185.65C95.0323 185.292 95.4022 184.804 95.6168 184.243C95.8315 183.683 95.8819 183.072 95.7622 182.484C95.6425 181.896 95.3576 181.354 94.941 180.921C94.5243 180.489 93.9931 180.185 93.4096 180.044Z" fill="#FF7E5B" fill-opacity="0.5"/>
<path d="M73.6458 55.2824C77.8188 69.7904 76.3856 69.9659 93.4091 64.5937C98.0696 63.0727 96.9288 59.5529 95.9733 56.2282C95.5053 54.2782 93.5066 53.7614 93.8868 55.8479C94.4621 58.6072 95.8856 61.8344 92.7461 62.7899C82.0211 66.1342 79.2423 67.6649 77.7311 62.8777C73.5678 49.3447 73.7141 51.7919 86.2818 47.3947C87.9003 46.8194 86.1941 45.4447 84.7608 45.9712C81.7286 46.9462 79.6323 47.6774 76.8828 48.6232C74.1333 49.5689 72.6026 51.9577 73.6458 55.2824Z" fill="#1C1F28"/>
<path d="M101.872 49.0036C105.479 47.8628 130.283 41.8763 132.184 41.3108C134.086 40.7453 135.412 38.7466 131.707 39.5071C128.782 40.0726 107.332 44.5381 101.589 47.0146C100.253 47.5801 100.068 49.5788 101.872 49.0036Z" fill="#1C1F28"/>
<path d="M87.2373 90.1092C85.4336 89.924 84.1953 85.361 82.7718 79.9497C81.2411 74.0022 84.8876 75.0747 94.0818 72.1497C95.8856 71.5842 94.5498 70.2485 91.8881 70.9212C83.0546 73.1052 79.1546 73.583 80.9681 80.33C83.5323 89.6412 84.2928 92.6832 88.6608 92.303C92.5926 91.8659 96.4543 90.939 100.156 89.5437C105.675 87.74 104.154 83.84 103.013 79.5695C102.34 77.093 100.683 78.5262 101.209 80.6127C101.736 82.6992 103.101 86.219 99.7758 87.3597C96.7533 88.442 90.5621 90.5285 87.2373 90.1092Z" fill="#1C1F28"/>
<path d="M120.018 51.8603C130.002 49.6763 130.743 49.101 130.851 48.1553C130.938 47.4825 130.09 47.3948 129.242 47.58C128.394 47.7653 121.637 49.296 119.833 50.0565C118.029 50.817 118.878 52.143 120.018 51.8603Z" fill="#1C1F28"/>
<path d="M94.8033 158.477C99.2786 161.831 131.132 153.095 136.611 151.73C146.664 149.292 158.978 147.069 166.544 141.98C172.092 138.333 177.981 131.069 180.984 125.063C184.182 119.74 183.567 115.547 181.842 109.668C176.323 90.948 168.065 59.1143 161.025 36.9818C159.504 31.941 158.178 27.6705 157.418 24.9113C155.897 19.7828 153.518 18.8273 150.486 19.11C148.204 12.753 141.711 12.753 136.134 13.6988C120.534 16.4093 110.501 18.798 107.342 17.0235C106.962 16.7408 106.864 16.263 106.864 15.0735C106.911 13.3332 106.465 11.615 105.577 10.1175C104.689 8.61994 103.395 7.40415 101.846 6.61053C100.296 5.81632 98.554 5.47637 96.8197 5.62991C95.0854 5.78345 93.4298 6.42422 92.0441 7.47828C90.788 7.23803 89.4977 7.23803 88.2416 7.47828C82.4501 8.90178 81.5921 14.508 83.6786 18.4958C84.4391 19.9193 83.8736 20.2995 82.1576 21.06C81.4946 21.3525 77.9846 23.1563 76.9316 24.8625C37.7853 33.5108 49.6901 37.0305 63.0573 85.9658C65.2608 93.9998 76.9316 131.957 78.6573 138.128C81.3191 145.451 82.0796 155.327 87.1106 156.283C88.4561 159.11 91.8003 159.491 94.8033 158.477ZM163.122 141.278C167.207 135.574 169.518 128.242 170.249 119.418C170.327 118.443 170.151 117.137 171.292 117.234C174.525 117.735 177.665 118.721 180.603 120.159C179.307 125.21 172.472 135.623 163.161 141.278H163.122ZM148.292 19.4025C145.523 19.9583 134.096 21.84 126.062 23.4878C125.596 22.7404 125.021 22.0667 124.356 21.489C141.915 17.6963 146.927 16.9845 148.331 19.3635L148.292 19.4025ZM95.9343 8.19003C96.9776 7.94346 98.0637 7.94109 99.108 8.1831C100.152 8.42511 101.127 8.90497 101.955 9.5853C102.784 10.2656 103.444 11.128 103.884 12.1053C104.325 13.0827 104.534 14.1485 104.495 15.2198C104.397 19.305 107.722 20.163 111.71 19.8705C116.585 19.8705 126.159 22.152 124.726 28.431C124.258 30.7028 102.974 34.6028 94.3256 36.504C85.8626 38.3078 83.6786 38.7855 82.8303 36.9818C79.9736 30.7028 85.0143 26.3348 88.6218 25.0965C92.0441 23.9655 94.2281 21.1965 92.2293 17.8815C90.2306 14.5665 90.6596 9.57453 95.9733 8.15103L95.9343 8.19003ZM86.4378 20.7285C87.1983 18.447 85.4628 17.2185 85.1118 15.0248C84.6341 12.2753 87.0618 9.61353 90.0453 9.51603C88.2416 12.2753 88.6218 16.0778 90.1428 18.8273C91.2836 20.826 90.5231 21.3915 89.0021 22.2495C86.5353 22.7273 83.5908 23.3903 81.3971 23.7705C83.1521 23.0685 85.7163 22.308 86.4768 20.6895L86.4378 20.7285ZM104.583 36.7868C120.524 33.6473 129.123 32.5455 127.008 25.6718C133.95 24.2483 145.065 22.347 147.063 22.0643C151.812 21.3038 153.81 20.631 155.136 25.7693C158.276 36.4943 164.643 56.745 167.109 66.0563C178.527 108.557 180.886 112.915 180.886 117.653C178.177 116.495 175.339 115.667 172.433 115.187C168.913 114.514 167.772 116.035 167.685 121.456C165.403 121.173 163.024 120.695 163.219 123.406C163.502 128.066 162.078 139.006 154.756 145.07C152.694 145.661 150.601 146.14 148.487 146.504C131.912 149.633 112.665 156.761 96.6071 157.043C95.6321 157.043 96.0903 156.712 89.9576 137.28C81.5921 109.161 70.4576 76.089 63.7301 47.775C61.4486 38.2688 70.0968 37.6058 79.6908 35.4218C81.1533 43.4558 86.8278 40.2578 104.622 36.7478L104.583 36.7868ZM57.7826 45.0548C56.0081 36.4358 59.2548 34.8368 80.2076 29.9423C79.8489 30.8572 79.6256 31.8196 79.5446 32.799C68.9951 35.9288 59.3913 35.724 61.6728 47.9018C63.9543 60.0795 93.2726 156.322 93.3213 156.419C92.0831 156.702 90.3963 156.8 89.6163 155.942C80.5391 122.119 61.6533 63.9308 57.7533 45.0158L57.7826 45.0548Z" fill="#1C1F28"/>
<path d="M180.164 160.378C179.501 155.503 174.373 153.719 165.91 154.294C157.739 154.957 133.735 160.144 131.424 160.846C130.81 161.117 130.258 161.51 129.8 162C129.343 162.492 128.99 163.071 128.762 163.703C118.788 165.984 91.5077 173.014 86.5742 182.51C88.1759 181.527 89.9003 180.76 91.7027 180.229C102.145 172 130.907 165.311 132.653 165.311C138.61 164.541 141.837 175.481 136.65 178.805C134.369 180.229 106.815 186.215 93.2237 186.215C91.4687 186.793 89.6474 187.147 87.8027 187.268C93.4967 191.432 126.968 184.285 135.695 181.565C136.362 181.828 137.074 181.956 137.791 181.945C139.975 181.945 148.428 179.186 151.85 177.762C156.989 182.9 180.652 171.551 183.684 168.012C186.531 164.463 185.39 160.378 180.164 160.378ZM150.612 175.763C146.989 177.208 143.277 178.416 139.497 179.381C143.972 174.262 140.882 162.806 133.033 162.806C139.273 161.577 176.255 150.774 177.883 160.524C171.828 162.367 149.286 169.016 150.612 175.763ZM181.685 166.832C177.98 169.972 168.191 173.862 161.825 175.763C159.163 176.621 155.458 177.284 153.469 175.958C148.331 172.536 176.742 162.65 180.262 162.65C183.782 162.65 183.782 165.029 181.685 166.832Z" fill="#1C1F28"/>
<path d="M110.989 79.3846C112.793 79.1506 133.794 72.9203 135.227 72.5596C136.358 72.1793 136.456 70.9508 135.315 70.9508C132.946 70.9508 127.427 73.1348 120.017 75.0361C117.268 75.6991 112.325 76.7423 110.706 77.5028C109.088 78.2633 109.175 79.6576 110.989 79.3846Z" fill="#1C1F28"/>
<path d="M97.875 17.8424C102.916 17.9399 102.155 9.75961 97.212 11.1929C96.4062 11.369 95.6932 11.835 95.2085 12.5024C94.7238 13.1698 94.5012 13.992 94.583 14.8128C94.6648 15.6336 95.0454 16.3957 95.6524 16.9542C96.2593 17.5128 97.0503 17.8288 97.875 17.8424ZM98.2553 12.8991C99.7763 12.8991 99.9713 15.4634 98.4503 15.8241C96.0713 16.4969 95.6033 12.8991 98.2553 12.8991Z" fill="#1C1F28"/>
<path d="M110.707 105.163C109.849 102.979 108.62 103.642 108.903 104.686C109.956 108.381 111.282 111.511 107.577 112.388C104.243 113.631 100.808 114.584 97.3102 115.235C93.4687 116.035 92.6205 114.202 90.183 103.837C89.5785 100.366 90.7582 100.171 100.732 97.1879C102.439 96.7101 102.634 96.2129 102.253 95.8521C100.947 94.5944 94.3657 97.0904 91.8014 98.1336C89.2372 99.1769 87.6187 100.22 88.2817 103.984C88.8482 107.188 89.7066 110.334 90.846 113.383C92.796 118.199 94.5412 118.706 108.045 114.143C112.296 112.661 112.276 109.346 110.707 105.163Z" fill="#1C1F28"/>
<path d="M114.606 52.338C113.553 51.285 111.369 52.143 102.906 54.6098C101.385 55.0875 101.931 56.4233 103.188 56.4233C104.446 56.4233 109.438 54.6098 113.455 53.5665C114.693 53.2545 114.888 52.6208 114.606 52.338Z" fill="#1C1F28"/>
<path d="M62.2488 142.223C56.504 138.911 49.7742 137.734 43.246 138.899C40.8875 137.434 38.2132 136.555 35.446 136.334C35.1466 134.375 34.3404 132.529 33.1073 130.978C31.8742 129.426 30.2571 128.225 28.4163 127.491C16.8235 122.362 6.46903 133.575 11.5975 144.407C13.6938 148.873 17.4475 151.632 21.6693 151.632C21.9668 152.974 22.4805 154.258 23.1903 155.435C21.484 163.508 22.342 170.83 26.2323 176.056C34.5978 187.356 42.9535 190.778 51.7968 190.778C80.7835 190.778 85.6975 154.664 62.2488 142.223ZM21.3865 149.253C13.021 148.688 9.62803 137.026 15.595 131.206C20.8308 126.087 32.17 129.207 33.0768 136.432C26.3298 137.28 21.289 142.76 21.3865 149.253ZM39.7263 139.756C32.9013 141.706 26.9928 146.026 24.331 152.295C21.679 142.886 30.8928 136.012 39.7263 139.756ZM30.5125 177.479C19.963 166.549 23.3853 144.69 42.8658 141.18C49.157 140.16 55.6087 141.261 61.2055 144.31C39.4728 137.329 22.654 157.95 30.5125 177.479ZM62.0538 186.41C48.2283 192.095 36.8793 186.596 32.3163 175.578C27.6558 160.592 37.006 145.265 53.503 145.265C76.279 144.983 83.3868 177.645 62.0538 186.41Z" fill="#1C1F28"/>
<path d="M107.947 70.005C106.338 70.668 106.338 71.9062 108.142 71.9062C109.946 71.9062 119.257 68.679 122.874 67.4407C126.491 66.2025 145.767 61.4542 146.528 61.074C147.288 60.6937 147.863 58.89 144.246 59.553C136.388 60.9667 108.532 69.771 107.947 70.005Z" fill="#1C1F28"/>
<path d="M127.428 98.3286C124.962 98.9916 121.578 100.415 119.833 100.981C118.088 101.546 118.312 102.931 120.018 102.882C121.725 102.833 127.048 100.6 127.906 100.22C128.764 99.8398 129.905 97.6558 127.428 98.3286Z" fill="#1C1F28"/>
<path d="M128.929 91.2891C124.942 92.7224 119.238 94.2141 117.434 95.0916C115.63 95.9691 116.576 97.0416 117.629 97.0416C118.682 97.0416 125.478 94.5846 129.69 93.1416C135.637 91.1234 145.29 89.0564 147.24 88.2666C149.19 87.4769 149.619 85.4196 146.577 86.4629C143.535 87.5061 134.935 89.3001 128.929 91.2891Z" fill="#1C1F28"/>
</svg>
