<svg width="218" height="218" viewBox="0 0 218 218" fill="none" xmlns="http://www.w3.org/2000/svg">
<path d="M89.5997 43.5196C76.2145 53.0459 90.984 73.8996 104.576 62.7783C117.645 51.9826 101.928 34.9589 89.5997 43.5196Z" fill="#FF7E5B" fill-opacity="0.2"/>
<path d="M143.358 112.482C142.001 112.025 140.521 112.099 139.216 112.688C140.382 111.527 143.151 107.61 140.066 108.251C138.475 108.565 138.584 110.79 138.159 112.167C137.625 110.79 137.407 108.272 136.24 108.251C133.799 108.196 135.15 111.419 136.993 112.688C134.333 111.527 131.434 112.612 133.058 114.283C133.581 114.815 135.717 114.381 137.091 114.066C134.758 115.553 133.821 119.253 136.349 118.504C137.091 118.298 137.832 115.976 138.257 114.706C138.682 115.976 139.434 118.298 140.175 118.504C142.41 119.144 141.876 116.182 139.434 114.066C141.56 114.913 145.811 114.479 143.358 112.482Z" fill="#FF7E5B" fill-opacity="0.2"/>
<path d="M125.352 99.7875C124.475 99.3211 123.474 99.1355 122.486 99.2558C123.576 98.735 126.203 96.6193 123.761 96.4023C123.02 96.3046 122.279 97.2486 121.581 98.735C121.472 97.7802 121.69 95.8815 120.84 95.6645C119.248 95.2413 119.565 97.4656 120.622 98.8327C117.352 96.4131 115.041 100.211 120.524 99.7875C118.714 100.319 117.439 102.858 119.248 102.641C119.881 102.641 120.731 101.556 121.265 100.471C121.374 101.415 121.472 103.118 122.006 103.433C123.369 104.203 123.499 102.164 122.224 100.254C124.023 101.372 126.65 101.719 125.352 99.7875Z" fill="#FF7E5B" fill-opacity="0.2"/>
<path d="M97.1422 123.061C95.9759 122.421 94.7006 124.005 93.4253 124.645C94.1665 123.159 95.3328 119.99 92.6841 120.414C91.5178 120.62 92.15 123.267 92.15 124.645C91.1908 123.56 90.1335 121.39 88.9672 121.791C86.0896 123.061 89.5994 124.851 91.1472 125.491C89.2288 125.697 85.2176 126.815 87.9535 128.345C89.2397 129.061 90.5041 127.499 91.6704 126.761C90.297 128.985 90.297 132.685 92.6296 130.775C93.2618 130.254 93.0547 128.236 93.0547 126.967C93.9049 128.052 94.8532 130.016 96.1394 129.723C98.6791 129.137 95.7143 126.761 93.9594 126.023C95.5508 125.806 99.3767 124.33 97.1422 123.061Z" fill="#FF7E5B" fill-opacity="0.2"/>
<path d="M102.887 97.1181C104.685 96.8035 102.985 95.3279 100.968 95.3279C101.928 94.9047 104.053 93.1036 102.353 92.9951C101.928 92.9951 101.077 93.4183 100.434 94.6877C100.652 93.6027 100.543 91.3025 99.159 92.2573C98.6358 92.6805 99.268 93.9499 99.6931 94.9047C98.4178 93.9499 97.5131 93.6353 97.1425 93.8197C95.7582 94.3514 97.1425 95.6208 99.159 95.6208C97.4586 96.044 96.2923 97.7908 97.7856 97.9427C98.3088 98.0512 99.159 96.8577 99.8021 96.261C99.486 98.2682 100.009 99.7438 101.077 98.6914C101.394 98.3659 100.859 96.8903 100.652 96.044C101.372 96.5105 102.353 97.2483 102.887 97.1181Z" fill="#FF7E5B" fill-opacity="0.2"/>
<path d="M136.349 43.2053C133.264 42.7821 130.19 48.9232 129.863 50.7135C129.081 54.2808 129.652 58.0099 131.465 61.1837C132.228 62.4423 133.907 60.8691 133.264 59.7081C131.084 55.8998 130.931 49.8672 134.757 46.1673C134.539 48.5001 136.142 50.3988 137.624 49.9757C138.158 49.7695 138.158 49.2379 137.831 48.8147C136.065 46.4603 137.537 43.2053 136.349 43.2053Z" fill="#FF7E5B" fill-opacity="0.2"/>
<path d="M151.435 37.8123C153.778 38.0293 156.885 35.6423 157.604 33.2662C159.196 27.7652 151.533 26.6802 150.269 31.9967C150.046 33.3232 149.941 34.6664 149.953 36.0112C148.034 40.2427 145.484 42.684 145.593 45.429C145.845 46.4425 146.386 47.3618 147.151 48.0764C151.718 53.1542 150.977 64.9916 141.309 64.2538C141.028 64.2319 140.75 64.3192 140.532 64.4972C140.315 64.6752 140.175 64.9302 140.143 65.2085C140.252 66.478 141.418 66.478 142.323 66.478C152.198 66.3695 154.65 53.5665 148.797 46.807C146.465 44.0402 147.838 44.9625 151.435 37.8123ZM154.095 30.4126C157.495 30.6622 154.629 35.3819 152.078 35.4904C151.969 33.8955 152.187 30.2716 154.095 30.4126Z" fill="#FF7E5B" fill-opacity="0.2"/>
<path d="M114.778 94.8178C114.146 94.2862 113.077 95.1325 112.227 95.458C112.87 94.6117 113.829 92.203 112.227 92.7021C111.279 93.0168 111.595 94.5032 111.486 95.3495C110.952 94.6117 110.396 93.1252 109.786 93.1795C107.769 93.3856 109.786 94.9806 110.745 95.6099C109.578 95.5014 107.475 96.3477 108.401 97.0855C109.044 97.5195 110.102 96.7709 110.952 96.4562C110.211 97.411 109.36 99.4183 110.952 99.2013C111.486 99.1036 111.595 97.5195 111.704 96.6732C112.129 97.411 112.87 98.7781 113.404 98.7781C114.669 98.6805 114.037 97.194 112.445 96.25C113.502 96.4019 116.053 95.8811 114.778 94.8178Z" fill="#FF7E5B" fill-opacity="0.2"/>
<path d="M132.317 131.73C130.508 127.39 126.464 127.715 120.839 130.883C119.139 125.914 112.337 110.681 103.628 106.775C102.887 106.352 101.928 106.872 101.285 107.404C100.435 108.142 95.6059 113.751 95.5514 116.399C95.5812 116.772 95.7168 117.129 95.9426 117.429C96.1683 117.729 96.4749 117.958 96.8267 118.091C101.862 120.435 104.577 122.844 109.907 136.276C102.68 139.878 93.5567 144.316 86.003 148.016C80.6838 138.815 75.4845 122.214 90.5701 119.144C90.8077 119.116 91.0359 119.035 91.2378 118.907C91.4397 118.78 91.6102 118.608 91.7364 118.406C93.7529 115.65 94.287 113.068 90.9952 112.981C90.036 112.981 91.4966 111.353 94.6031 107.903C95.2571 107.176 95.8784 106.102 93.7529 106.102C78.5583 105.787 69.4241 119.003 68.3668 127.26C67.5166 134.019 68.999 141.527 75.4845 153.376C69.8492 156.131 66.2413 157.716 69.6421 164.377C71.9747 169.347 76.6508 180.88 81.3269 186.587C88.8697 195.788 105.656 205.032 124.676 194.096C145.593 182.182 148.035 160.287 132.317 131.73Z" fill="#FF7E5B" fill-opacity="0.2"/>
<path d="M141.45 63.2014C140.491 60.1308 139.434 57.2773 138.18 55.6823C134.987 51.798 132.218 54.3478 134.246 55.1615C136.273 55.9753 137.755 58.3297 139.456 63.6245C141.156 68.9193 145.08 83.8164 146.355 89.1112C148.056 95.6212 147.631 98.4096 141.897 100.525C139.347 101.48 124.37 105.95 118.626 107.198C116.5 107.61 117.536 109.629 120.544 108.88C147.794 102.109 151.631 101.285 148.699 89.3499C147.293 83.7187 144.971 75.0387 141.45 63.2014Z" fill="#1C1F28"/>
<path d="M47.3176 103.172C49.4104 96.9012 50.5876 98.1815 61.6511 97.7475C64.6268 97.639 65.1609 95.7945 62.7411 95.8487C50.7511 96.1091 47.8626 94.5901 45.2139 102.511C44.0367 105.896 35.5456 147.668 34.7935 152.746C34.0414 157.824 36.8209 160.254 41.9112 160.254H59.3512C61.6838 160.254 61.3677 158.139 57.2257 158.139H41.7913C37.9654 158.139 36.156 156.869 36.6901 153.061C37.7474 148.016 46.1404 106.449 47.3176 103.172Z" fill="#1C1F28"/>
<path d="M19.9043 189.159C32.2213 189.691 63.8858 190.244 66.8615 190.114C72.8129 190.005 72.3115 187.944 68.878 187.89C63.9948 187.781 23.8283 187.25 17.648 187.043C15.2609 186.935 15.4353 188.942 19.9043 189.159Z" fill="#1C1F28"/>
<path d="M122.964 85.1829C120.195 85.823 107.453 89.1974 104.903 90.0437C102.352 90.89 102.984 92.5826 106.701 91.6386C122.343 87.5156 127.716 85.031 129.591 89.1974C130.125 90.89 129.482 93.1142 126.932 94.6224C126.092 95.0455 126.506 96.5211 128.425 95.7074C134.333 93.0057 132.447 83.2624 122.964 85.1829Z" fill="#1C1F28"/>
<path d="M118.92 55.1612C116.904 55.899 116.587 58.1233 118.288 57.5916C119.988 57.06 122.648 56.4307 125.515 55.7905C127.607 55.3782 128.076 52.1232 118.92 55.1612Z" fill="#1C1F28"/>
<path d="M96.7167 84.4564C98.5261 84.5649 99.9867 82.026 101.186 80.6481C103.758 82.8181 106.832 83.0242 107.66 79.6932C109.186 80.5612 111.584 80.2032 111.802 78.6082C113.339 79.0422 115.072 78.695 115.519 77.2303C119.247 78.3153 121.046 74.1598 118.397 75.2231C116.369 76.0585 114.233 73.8017 113.503 76.6987C111.857 76.3406 109.895 76.2864 109.895 77.9681C108.805 77.762 107.235 77.0133 106.494 77.545C105.644 78.2828 106.178 79.7692 105.11 79.9753C104.042 80.1815 102.243 78.0766 100.968 78.2828C99.6924 78.4889 98.101 81.9935 97.1418 82.1996C96.1826 82.4058 95.921 80.8433 94.831 81.4943C93.5339 82.1237 94.9073 84.3479 96.7167 84.4564Z" fill="#1C1F28"/>
<path d="M156.644 176.15C156.001 177.625 157.276 178.32 159.086 176.041C161.266 176.041 169.986 175.933 171.839 175.933C173.692 175.933 171.73 173.871 168.754 173.925C165.778 173.98 163.119 174.034 160.47 174.034C160.807 173.523 161.171 173.03 161.56 172.558C163.379 172.651 165.204 172.579 167.01 172.341C169.136 172.027 169.027 170.757 166.16 170.54C165.138 170.455 164.112 170.423 163.086 170.442C164.176 168.424 162.661 167.687 160.535 170.442C156.491 170.54 155.641 171.712 155.968 172.135C156.295 172.558 158.519 172.558 159.042 172.558C158.713 173.074 158.349 173.567 157.952 174.034C155.249 173.741 152.655 175.705 156.644 176.15Z" fill="#1C1F28"/>
<path d="M176.299 160.179C181.509 160.179 184.267 157.748 183.416 152.67C182.566 147.593 174.173 105.82 173.007 102.435C170.107 94.2214 167.622 95.9248 153.561 95.9248C151.011 95.9248 153.136 97.8344 156.003 97.8344C168.527 97.8344 169.148 97.3028 171.088 103.118C172.266 106.504 180.659 147.961 181.4 153.028C182.032 156.837 180.234 158.106 176.299 158.106H158.771C154.837 158.106 154.095 160.276 157.071 160.222C160.047 160.168 170.881 160.179 176.299 160.179Z" fill="#1C1F28"/>
<path d="M153.027 179.318C150.694 179.318 150.16 181.336 156.22 181.336C162.281 181.336 185.541 181.651 189.16 179.318C190.643 178.374 189.367 176.15 187.242 174.457C182.991 171.072 182.696 173.058 183.972 174.143C185.247 175.228 188.114 177.311 186.522 177.842C182.457 179.427 162.063 179.427 153.027 179.318Z" fill="#1C1F28"/>
<path d="M148.034 187.998C145.276 188.096 146.944 189.788 149.626 190.005C153.026 190.212 195.634 189.691 199.46 189.268C203.286 188.844 203.286 187.098 200.954 187.043L148.034 187.998Z" fill="#1C1F28"/>
<path d="M127.64 64.0473C128.272 64.3619 131.139 63.5156 131.782 63.8303C132.425 64.1449 133.591 66.7055 134.332 66.4777C135.074 66.2498 134.648 63.2986 135.074 62.6693C135.499 62.04 137.733 61.5084 137.406 60.4993C137.199 59.9677 135.292 59.653 134.965 59.2299C134.016 56.0508 133.798 56.691 132.523 57.8519C132.765 58.5051 133.048 59.1431 133.373 59.7615C134.114 60.9225 132.414 62.5066 131.564 61.2371C131.132 60.5374 130.743 59.8128 130.397 59.0671C129.438 59.0671 128.065 58.861 127.64 59.2841C127.106 59.9134 129.231 61.0852 129.231 61.606C129.231 62.1268 126.997 63.7218 127.64 64.0473Z" fill="#1C1F28"/>
<path d="M5.45117 191.807C5.45117 198.892 8.21977 200.139 14.0622 200.367C15.8607 200.443 77.9144 200.302 81.0972 200.367C83.7568 200.422 82.4815 198.36 79.7238 198.36C76.9661 198.36 18.8364 198.469 14.3238 198.36C9.11357 198.143 7.78377 197.405 7.78377 191.85C7.78377 184.808 8.87377 186.219 26.7934 172.917C31.2297 169.662 34.1291 167.731 39.0123 167.622C42.206 167.524 58.5669 167.731 60.3763 167.622C62.1857 167.514 61.4663 165.506 58.4579 165.506C36.6579 165.506 35.4589 164.834 30.1179 167.948C30.325 157.098 39.9933 112.309 42.2278 102.902C44.4623 93.4948 48.6043 92.9632 54.3377 92.9632C56.5177 92.9632 59.2318 92.8547 62.3056 92.8547C65.3794 92.8547 63.2648 90.8474 61.4554 90.8474C49.3673 90.8474 42.2496 90.4677 40.2113 102.37C39.4701 106.493 26.9242 159.268 28.2213 169.217C7.46767 184.559 5.45117 183.246 5.45117 191.807Z" fill="#1C1F28"/>
<path d="M87.201 88.0478C88.9014 87.9393 91.9861 86.8869 91.234 85.0858C91.0269 84.565 89.8606 84.1418 88.9014 84.2395C90.0677 83.0785 89.2175 80.4311 87.201 81.1798C86.8082 81.2904 86.4624 81.5257 86.2162 81.8498C85.97 82.1739 85.8367 82.5691 85.8367 82.9754C85.8367 83.3818 85.97 83.777 86.2162 84.1011C86.4624 84.4252 86.8082 84.6605 87.201 84.7711C85.457 85.5089 84.8139 88.1563 87.201 88.0478Z" fill="#1C1F28"/>
<path d="M51.3507 171.495C54.1084 171.495 53.3672 169.271 45.7154 169.596C43.1648 169.694 43.5354 171.495 44.7671 171.495H51.3507Z" fill="#1C1F28"/>
<path d="M68.7809 104.713C69.3041 106.612 70.9064 104.811 70.3723 102.695C62.4044 70.9695 58.8619 74.0292 80.5747 67.823C82.7547 67.1937 80.9998 65.653 78.6563 66.2389C75.0764 67.0718 71.5612 68.1596 68.1378 69.4939C59.5268 73.0636 60.486 74.9298 68.7809 104.713Z" fill="#1C1F28"/>
<path d="M142.726 134.268C138.9 125.697 136.459 122.106 126.256 127.183C123.498 120.098 116.163 105.483 105.96 99.8957C103.312 98.4092 100.227 101.794 99.1587 102.858C96.401 105.505 98.6355 106.775 101.611 106.775C98.9516 109.205 92.4661 112.688 96.9351 114.804C103.203 117.766 105.426 119.675 111.378 134.334C103.312 138.24 93.5343 142.894 85.1413 146.92C80.5742 139.325 71.6471 117.516 89.3923 114.446C91.2998 114.131 92.4661 112.015 93.4253 110.637C95.5508 107.469 96.0849 106.2 95.4418 105.462C94.7987 104.724 93.4253 104.713 90.8747 105.462C92.368 103.444 99.6928 97.7365 93.0547 97.4219C88.2696 97.1398 83.8987 99.2555 93.6869 94.9915C95.6053 94.1452 94.9513 92.8215 92.4225 93.6135C87.6047 95.1108 85.6209 96.3586 84.7925 98.2682C70.132 102.608 62.9925 113.458 61.9025 122.594C60.8125 130.948 63.2868 141.202 70.4045 154.059C62.9598 157.759 60.2239 159.657 63.919 167.697C72.421 185.893 80.0728 205.77 104.936 205.77C134.213 205.77 161.997 176.225 151.043 152.464C149.331 148.753 145.593 140.724 142.726 134.268ZM97.6763 112.905C98.8426 110.995 104.478 108.142 104.216 106.243C104.118 104.973 101.775 105.082 100.183 104.659C100.39 104.127 103.453 101.024 104.75 101.588C114.212 105.798 121.754 121.574 124.305 128.03C121.645 129.299 117.765 131.198 113.405 133.314C107.454 119.035 104.162 115.65 97.6763 112.905ZM64.2024 122.952C66.2298 108.142 80.9993 99.581 91.9429 99.364C94.1229 99.364 92.8912 100.308 92.4661 100.742C87.4739 105.863 86.5692 108.337 93.6433 107.089C92.5334 109.106 91.0547 110.898 89.2833 112.373C69.0965 116.496 77.5985 138.283 83.3319 147.809C79.2989 149.817 75.5711 151.509 72.7044 152.985C65.5867 140.518 63.0361 131.513 64.2024 122.952ZM128.273 197.199C105.96 209.785 88.008 202.168 79.8221 192.229C74.5138 185.719 69.8377 174.457 66.1208 166.732C63.7773 161.979 64.2024 160.07 67.8212 157.856C70.4808 156.261 90.2425 146.855 106.178 139.129C135.488 125.024 135.02 122.702 140.808 135.115C143.685 141.039 148.034 150.023 149.626 153.723C154.095 164.193 150.269 184.71 128.273 197.199Z" fill="#1C1F28"/>
<path d="M190.217 169.271C191.493 159.332 179.067 106.666 178.227 102.435C176.527 93.1255 171.208 91.3244 165.583 90.9013C161.798 90.6396 158 90.6396 154.215 90.9013C151.664 91.2268 150.062 93.0713 152.721 93.0713C165.801 93.0713 173.213 90.4347 176.102 102.912C178.282 112.211 188.321 157.379 187.994 167.849C185.428 166.13 182.36 165.309 179.274 165.517C176.091 165.517 159.294 165.517 157.474 165.625C155.654 165.734 154.204 167.632 156.94 167.632C183.939 167.632 182.936 166.602 191.471 173.057C209.587 186.49 210.491 184.992 210.491 191.991C210.491 197.6 209.107 198.338 203.897 198.501C199.439 198.609 141.636 198.501 138.497 198.501C135.358 198.501 133.189 200.725 136.317 200.725C136.317 200.725 202.197 200.725 203.897 200.616C209.75 200.41 212.377 199.032 212.508 192.056C212.693 183.463 211.461 185.123 190.217 169.271Z" fill="#1C1F28"/>
<path d="M156.536 30.4123C160.253 26.1808 166.945 17.5116 168.122 15.2223C169.496 12.4772 167.904 11.6309 166.945 13.0523C165.986 14.4736 155.871 28.5027 153.778 30.6184C153.135 31.1501 153.985 33.3743 156.536 30.4123Z" fill="#1C1F28"/>
<path d="M42.2177 173.817C41.2572 173.804 40.2968 173.841 39.3401 173.926C36.8985 174.034 35.8412 175.412 37.3236 175.727C38.5912 175.9 39.8709 175.97 41.1495 175.933C40.7244 177.202 40.6154 177.842 41.1495 177.842C41.6836 177.842 42.7409 177.528 43.493 175.933L58.2625 176.041C59.0037 177.625 59.1127 178.049 59.8539 178.049C60.5951 178.049 61.0202 177.528 60.5951 176.041C62.9277 176.041 63.1457 175.727 63.4618 175.304C63.9959 174.772 63.0367 173.926 59.7449 173.926C59.5378 173.405 59.2108 172.656 58.7857 171.604C58.0445 169.803 55.6029 169.173 56.3441 171.289C56.8782 172.559 57.4341 173.926 57.4341 173.926C53.7063 173.926 45.8474 173.817 44.5721 173.817C44.8664 172.135 43.7001 171.81 42.2177 173.817Z" fill="#1C1F28"/>
<path d="M103.311 37.183C88.9666 31.4651 73.9791 46.3838 80.1485 60.6624C81.5083 63.7932 83.7646 66.4559 86.6355 68.318C89.5065 70.1801 92.8649 71.159 96.2914 71.1327C117.644 71.0784 120.991 44.1596 103.311 37.183ZM111.279 60.2284C105.96 71.6426 86.307 71.7511 82.165 59.8053C77.805 47.4254 87.1572 38.3331 97.5667 38.1053C107.976 37.8774 115.737 50.6153 111.279 60.2284Z" fill="#1C1F28"/>
<path d="M34.4561 171.81C33.3661 171.387 28.9298 175.304 27.9161 177.235C26.9024 179.166 28.2322 180.62 30.8918 180.729C41.4103 181.467 60.5289 181.369 64.7799 181.152C69.0309 180.935 67.9736 179.351 66.4803 179.351C62.9705 179.459 40.2222 179.438 31.9491 178.722C30.9899 178.635 29.5075 178.613 30.6738 177.235C33.6059 173.503 35.4153 172.136 34.4561 171.81Z" fill="#1C1F28"/>
<path d="M97.3598 55.6822C105.219 53.892 101.927 42.2608 93.9589 44.5827C87.2009 46.5899 89.381 57.4833 97.3598 55.6822Z" fill="#1C1F28"/>
<path d="M83.114 79.3785C77.0645 81.9174 80.0402 91.7475 85.9916 91.2267C90.9838 90.8035 113.242 84.9879 118.288 82.6552C125.09 79.6931 125.831 77.3712 125.406 74.8323C124.872 72.0764 122.746 69.5375 114.779 71.024C109.252 71.9788 87.365 77.6859 83.114 79.3785ZM123.073 77.3712C121.046 82.232 90.4497 88.8939 86.5148 89.4256C81.4245 90.0549 80.1492 82.9156 83.6481 81.2772C87.692 79.27 111.912 73.1397 118.397 72.2934C121.798 71.8703 124.349 74.1922 123.073 77.3712Z" fill="#1C1F28"/>
<path d="M126.049 176.15C124.871 174.772 120.675 170.725 117.754 167.904C117.396 167.528 117.14 167.068 117.011 166.567C116.881 166.066 116.882 165.54 117.012 165.039C117.432 163.655 117.563 162.2 117.398 160.764C117.233 159.327 116.775 157.939 116.053 156.685C109.677 147.061 93.741 156.587 99.8014 166.732C102.472 171.072 105.905 169.694 106.276 172.982C106.995 179.231 105.96 190.743 113.078 188.096C116.053 187.011 124.773 182.671 126.049 181.651C126.707 181.175 127.174 180.482 127.364 179.694C127.554 178.907 127.456 178.078 127.086 177.356C126.841 176.878 126.486 176.465 126.049 176.15Z" fill="#1C1F28"/>
<path d="M97.5663 57.3751C93.2063 58.6445 90.296 61.8344 90.8737 64.254C91.4514 66.6735 100.76 67.4222 105.327 63.7223C111.18 58.97 106.275 54.9447 97.5663 57.3751Z" fill="#1C1F28"/>
<path d="M177.257 176.996C178.347 176.887 177.998 174.142 175.982 170.963C174.488 168.533 172.984 169.498 173.54 170.757C175.982 176.323 176.298 177.104 177.257 176.996Z" fill="#1C1F28"/>
</svg>
