<svg width="171" height="152" viewBox="0 0 171 152" fill="none" xmlns="http://www.w3.org/2000/svg">
<circle cx="92.978" cy="75.3135" r="71.103" fill="#F0F0F0"/>
<path d="M104.025 58.5385L170.716 77.3592L163.76 151.415L83.9766 131.367L104.025 58.5385Z" fill="#D2D2D2"/>
<path d="M170.306 76.95L100.342 58.9476C96.9323 63.8574 88.1493 76.5409 80.2937 87.997C72.4381 99.4531 58.7453 113.5 52.8809 119.092L134.71 143.232C136.21 142.413 142.566 136.44 155.986 119.092C169.406 101.744 171.124 83.7692 170.306 76.95Z" fill="#F3F3F3" stroke="#CCCCCC" stroke-width="0.818293"/>
<circle cx="106.48" cy="78.1775" r="3.27317" fill="#C4C4C4"/>
<circle cx="96.6599" cy="95.3616" r="3.27317" fill="#C4C4C4"/>
<circle cx="86.8415" cy="110.909" r="3.27317" fill="#C4C4C4"/>
<circle cx="40.7168" cy="41.018" r="29.8586" transform="rotate(25.8347 40.7168 41.018)" fill="#F0F0F0" stroke="#D2D2D2" stroke-width="0.818293"/>
<rect width="16.3659" height="2.45488" transform="matrix(1 0 0 -1 31.3047 49.61)" fill="#C4C4C4"/>
<circle cx="23.5319" cy="36.1082" r="4.50061" fill="#C4C4C4"/>
<circle cx="55.4459" cy="36.1082" r="4.50061" fill="#C4C4C4"/>
<rect x="105.023" y="98.1864" width="39.2781" height="1.63659" rx="0.818293" transform="rotate(15.5 105.023 98.1864)" fill="#C4C4C4"/>
<rect x="96.457" y="114.769" width="35.5522" height="1.63659" rx="0.818293" transform="rotate(15.5 96.457 114.769)" fill="#C4C4C4"/>
<rect x="115.805" y="80.6696" width="39.2781" height="1.63659" rx="0.818293" transform="rotate(14.5 115.805 80.6696)" fill="#C4C4C4"/>
</svg>
