<svg width="168" height="144" viewBox="0 0 168 144" fill="none" xmlns="http://www.w3.org/2000/svg">
<path d="M114.028 6.73525C114.028 6.73525 91.1382 35.7289 54.5146 18.4344C17.891 1.1399 -18.7328 47.9369 12.8043 76.4219C44.3414 104.907 13.48 120.559 34.905 138.017C59.256 157.858 80.4563 117.624 99.7855 126.78C142.446 146.987 174.05 138.987 166.929 115.589C154.428 74.516 138.444 71.844 150.652 50.4802C162.859 29.1163 135.917 -15.3043 114.028 6.73525Z" fill="#DEE9FF"/>
<path d="M101.566 86.9241L99.7576 96.6328L91.1443 142.784L75.6288 139.887L85.5773 86.5741L86.0503 84.0336L101.566 86.9241Z" fill="#699CFF"/>
<path d="M139.777 63.7065L134.427 92.3889C134.411 92.473 134.379 92.5531 134.333 92.6248C134.286 92.6965 134.226 92.7583 134.155 92.8066C134.085 92.8549 134.005 92.8889 133.922 92.9066C133.838 92.9242 133.752 92.9252 133.667 92.9095L58.504 78.8908L67.3507 31.4576L124.427 42.1031C134.772 44.0321 141.643 53.7023 139.777 63.7065Z" fill="#A2BDFF"/>
<path d="M83.4048 54.081L78.0966 82.5408L38.6429 75.1823L43.951 46.7225C45.9054 36.244 56.322 29.3965 67.2166 31.4284C78.1113 33.4604 85.3591 43.6022 83.4048 54.081Z" fill="#699CFF"/>
<path d="M101.772 67.3849C98.8648 66.8427 96.9465 64.017 97.494 61.0826C98.0415 58.1483 100.849 56.2034 103.756 56.746C104.683 56.9201 105.547 57.3366 106.261 57.953C106.975 58.5695 107.512 59.364 107.819 60.2556L144.545 67.1053L143.553 72.425L106.827 65.5752C106.219 66.2965 105.432 66.8438 104.544 67.1617C103.656 67.4796 102.7 67.5566 101.772 67.3849Z" fill="#418DF9"/>
<path d="M82.0958 54.604L76.9241 82.3324L39.7573 75.4004L44.9294 47.6719C46.8335 37.4628 56.6975 30.7381 66.9607 32.6523C77.2239 34.5665 83.9999 44.3948 82.0958 54.604Z" fill="#418DF9"/>
<path d="M102.814 64.6977C104.308 64.6977 105.519 63.4863 105.519 61.992C105.519 60.4977 104.308 59.2863 102.814 59.2863C101.319 59.2863 100.108 60.4977 100.108 61.992C100.108 63.4863 101.319 64.6977 102.814 64.6977Z" fill="white"/>
<path d="M144.969 67.0865L141.725 84.4802C141.711 84.5551 141.668 84.6214 141.605 84.6645C141.542 84.7076 141.465 84.724 141.39 84.71L132.862 83.1194C132.847 83.1167 132.834 83.1082 132.826 83.0958C132.817 83.0834 132.814 83.0681 132.817 83.0533L136.103 65.4329C136.106 65.4181 136.115 65.405 136.127 65.3965C136.139 65.388 136.155 65.3848 136.17 65.3875L144.924 67.0204C144.939 67.0231 144.952 67.0316 144.96 67.044C144.969 67.0565 144.972 67.0717 144.969 67.0865Z" fill="#699CFF"/>
<path d="M52.0568 65.4501C52.4159 68.0918 55.3147 71.2317 55.3147 71.2317C50.8975 71.5448 48.5053 69.0468 47.476 67.5289C46.2034 67.8966 44.8954 68.1287 43.5739 68.2214C34.5056 68.8641 26.6991 62.9437 26.1353 54.991C25.5715 47.0384 32.465 40.0759 41.5333 39.4332C50.6017 38.7906 58.4076 44.7107 58.9713 52.6635C59.338 57.8364 56.5467 62.5911 52.0568 65.4501Z" fill="white"/>
<path d="M78.1349 82.5583C77.7242 83.5977 70.2145 114.563 45.9129 110.03C19.2646 105.519 38.5399 75.1733 38.5399 75.1733L78.1349 82.5583Z" fill="#A2BDFF"/>
<path d="M42.5531 56.5554C43.7983 56.5554 44.8078 55.546 44.8078 54.3007C44.8078 53.0555 43.7983 52.046 42.5531 52.046C41.3078 52.046 40.2983 53.0555 40.2983 54.3007C40.2983 55.546 41.3078 56.5554 42.5531 56.5554Z" fill="#699CFF"/>
<path d="M32.4592 55.5722C33.712 55.5722 34.7275 54.5567 34.7275 53.3039C34.7275 52.0512 33.712 51.0356 32.4592 51.0356C31.2065 51.0356 30.1909 52.0512 30.1909 53.3039C30.1909 54.5567 31.2065 55.5722 32.4592 55.5722Z" fill="#699CFF"/>
<path d="M52.5504 57.5163C53.8032 57.5163 54.8187 56.5007 54.8187 55.248C54.8187 53.9952 53.8032 52.9797 52.5504 52.9797C51.2977 52.9797 50.2821 53.9952 50.2821 55.248C50.2821 56.5007 51.2977 57.5163 52.5504 57.5163Z" fill="#699CFF"/>
<path d="M101.566 86.9241L99.7577 96.6328L85.5773 86.5741L86.0504 84.0336L101.566 86.9241Z" fill="#418DF9"/>
</svg>
