<svg width="238" height="166" viewBox="0 0 238 166" fill="none" xmlns="http://www.w3.org/2000/svg">
<path d="M214.961 34.1744C216.962 29.7609 226.989 24.4097 223.438 22.9218C218.874 20.9964 211.823 22.2592 203.771 23.8595C194.419 10.5565 185.754 -0.671021 170.976 16.4954C165.462 11.8818 153.472 9.09369 144.72 12.0819C140.457 14.5824 150.747 19.471 150.034 22.1842C150.034 23.797 149.296 26.085 144.458 26.3101C119.852 31.4112 138.506 42.5638 145.108 48.8902C164.337 26.2601 155.023 36.925 169.526 45.702C171.001 45.4644 177.09 38.5754 179.603 38.2753C182.954 37.8752 185.855 51.3783 188.168 52.1284C197.295 42.8013 200.67 50.278 204.184 64.1937C209.547 63.2684 210.285 60.5803 211.885 59.3551C216.724 67.807 209.26 74.8836 206.884 77.3466C214.011 77.7967 220.537 69.6574 218.962 63.7936C223.963 62.3307 230.877 64.4312 231.352 59.9427C231.715 55.6667 227.827 45.2269 214.961 34.1744Z" fill="#EF564B" fill-opacity="0.2"/>
<path d="M100.373 79.9843C95.9574 79.0045 91.4638 78.4187 86.9448 78.2339C82.1687 100.351 34.2453 100.364 26.8312 89.7115C21.913 93.3377 18.5637 98.7037 17.4666 104.715C30.9946 106.99 52.4745 132.346 49.6363 144.724C117.064 140.973 79.8557 124.582 94.509 106.478C98.2202 107.841 102.033 108.912 105.912 109.678C99.1851 101.189 100.373 79.9843 100.373 79.9843Z" fill="#EF564B" fill-opacity="0.2"/>
<path d="M164.475 114.568C162.912 112.855 163.775 106.591 160.624 105.816C157.474 105.041 154.911 110.542 152.197 111.355C149.484 112.168 143.445 110.667 142.683 113.556C141.795 116.669 145.896 118.394 145.833 121.445C145.771 124.908 141.082 127.334 143.095 130.384C144.721 132.885 149.972 130.459 153.098 131.41C156.736 132.535 159.924 137.949 162.8 137.073C165.675 136.198 163.575 130.359 165.3 127.246C167.026 124.133 172.602 122.983 172.364 119.894C172.127 116.806 166.038 116.281 164.475 114.568Z" fill="#EF564B" fill-opacity="0.2"/>
<path d="M163.225 55.6669C160.599 44.4144 142.795 50.8158 147.784 61.1432C149.034 63.7688 154.035 61.7808 155.886 64.2564C160.462 66.5194 164.188 59.8554 163.225 55.6669ZM150.06 60.0929C149.718 59.3431 149.545 58.5272 149.554 57.7031C149.563 56.879 149.753 56.067 150.111 55.3247C150.469 54.5825 150.986 53.9281 151.625 53.4081C152.265 52.8882 153.011 52.5153 153.81 52.3162C154.17 55.4401 154.948 58.5015 156.123 61.4182C154.266 60.4167 152.165 59.9574 150.06 60.0929Z" fill="#1C1F28"/>
<path d="M66.44 87.8869C66.1282 87.7788 65.7864 87.7983 65.4889 87.9411C65.1915 88.084 64.9626 88.3387 64.8521 88.6496C63.8644 91.6753 58.9633 91.8503 57.2379 89.4748C57.0371 89.2114 56.74 89.0385 56.4118 88.994C56.0837 88.9494 55.7512 89.0369 55.4875 89.2372C53.6746 91.8128 58.7257 93.7257 60.9012 93.6507C63.6143 94.0008 69.2281 90.3625 66.44 87.8869Z" fill="#1C1F28"/>
<path d="M178.003 74.7834C176.328 74.1458 160.261 65.9189 159.086 72.6079C158.774 77.2715 160.236 80.8098 164.612 82.2351C171.526 85.0357 177.665 84.7357 178.603 75.9837C178.627 75.7473 178.584 75.5088 178.478 75.2962C178.371 75.0836 178.207 74.9057 178.003 74.7834ZM173.877 80.8223C172.389 82.0726 163.087 80.6847 161.937 76.7338C164.949 77.8064 168.027 78.6834 171.151 79.3594C175.04 77.6716 169.426 76.1337 167.851 75.9337C164.587 74.8709 161.149 74.7709 161.687 72.5079C166.425 72.6454 173.027 75.096 175.99 76.5338C175.615 78.8093 174.94 80.1721 173.877 80.8223Z" fill="#1C1F28"/>
<path d="M164.913 64.4811C165.013 67.0567 172.777 70.395 173.828 67.5068C173.828 64.3686 163.25 67.5068 168.514 59.3425C169.076 58.8844 169.76 58.5993 170.481 58.5216C171.202 58.444 171.93 58.5771 172.577 58.9049C179.816 56.8294 162.725 51.7532 164.913 64.4811Z" fill="#1C1F28"/>
<path d="M187.905 57.7306C181.366 57.0304 177.091 64.8322 180.154 70.2334C180.383 70.715 180.76 71.1106 181.23 71.3626C181.7 71.6145 182.239 71.7095 182.767 71.6337C185.567 71.1461 188.231 72.6089 191.256 73.4216C199.508 71.1586 196.57 57.368 187.905 57.7306ZM182.417 69.0831C181.954 68.2941 181.68 67.4093 181.615 66.4971C181.55 65.585 181.697 64.6702 182.042 63.8237C182.388 62.9772 182.924 62.2218 183.61 61.6161C184.295 61.0104 185.11 60.5707 185.993 60.3312C186.627 63.6131 187.63 66.8131 188.981 69.8708C186.871 69.1568 184.636 68.8885 182.417 69.0831Z" fill="#1C1F28"/>
<path d="M216.862 33.2867C236.041 18.1583 223.826 12.6445 202.134 16.3453C192.944 -2.02131 183.567 -6.58484 170.726 13.9073C160.099 1.40446 121.153 4.59269 144.471 21.2339C135.644 21.2339 126.016 27.1103 124.954 34.687C124.766 39.3881 132.455 42.4763 137.294 45.4519C135.281 49.4778 136.994 57.1546 140.52 59.8927C139.817 62.8348 139.527 65.8602 139.657 68.8822C136.583 69.172 133.588 70.0193 130.817 71.3828C130.055 62.5433 134.018 51.8784 122.716 44.9518C120.865 44.0141 112.126 41.0509 106.399 44.6893C100.148 48.1275 103.336 57.6547 99.7479 56.2419C91.7586 55.3167 94.4217 63.7436 98.8977 69.1573C99.8354 70.2825 99.7354 72.158 99.6229 74.3085C96.2589 73.1152 92.7364 72.4284 89.1705 72.2705C89.1604 68.5852 88.4033 64.9401 86.945 61.5556C90.1207 56.2294 87.6952 45.652 81.2937 43.6265C77.2178 34.2869 64.3149 31.7238 57.0758 34.4119C53.2124 32.2114 48.9239 31.0862 44.5729 32.3365C45.7245 31.0095 47.1663 29.9656 48.7864 29.2858C59.9264 24.2846 56.3631 14.0073 46.2858 14.695C49.274 5.69293 36.2836 4.56768 31.2824 10.2565C26.5814 -3.12156 6.60184 11.3067 18.1795 21.384C4.86395 22.6718 -1.9751 45.1144 15.5289 41.9136C14.6037 46.9148 19.2797 50.0905 24.0808 48.4526C23.7009 49.548 23.4124 50.6729 23.2181 51.8159C19.1047 53.8288 17.3293 57.9298 18.3045 62.9934C14.2411 67.8945 16.4541 76.0213 20.8051 80.6724C22.2304 82.0227 21.7178 84.4232 22.4679 86.1236C6.4143 99.3141 -7.01374 111.479 4.96397 128.758C9.08991 135.172 17.0542 140.999 19.9674 146.062C7.88964 155.477 42.1474 169.03 50.1492 146.35C66.0278 151.426 85.4697 145.262 99.2603 138.573C109.563 131.171 93.284 118.043 95.747 108.166C105.937 111.442 116.877 111.479 127.692 110.204C111.738 140.636 150.872 154.627 179.754 150.976C180.829 167.705 208.585 170.768 214.936 155.477C216.574 151.326 223.889 154.339 225.489 149.575C227.989 145.262 221.6 141.836 223.376 138.235C232.841 118.306 223.801 98.3264 207.685 81.3976C207.897 80.5794 208.023 79.7413 208.06 78.897C214.749 78.4219 222.451 74.0084 225.239 66.8193C229.277 68.2821 236.591 73.6458 237.592 66.2066C238.267 52.7911 230.077 39.8632 216.862 33.2867ZM139.494 46.7522C140.945 47.6399 142.495 48.6402 144.133 49.7779C142.997 52.1409 142.052 54.5909 141.307 57.1046C140.226 55.6363 139.5 53.9375 139.185 52.1413C138.87 50.3452 138.976 48.5006 139.494 46.7522ZM82.3565 46.9773C85.3447 49.4778 86.5074 54.7915 85.5197 58.3674C84.2865 55.9838 82.8737 53.6975 81.2937 51.5283C81.798 50.8964 82.155 50.16 82.3389 49.3728C82.5227 48.5855 82.5287 47.7672 82.3565 46.9773ZM79.0557 44.6267C81.9814 51.9409 76.9803 52.0409 69.8287 48.3776C81.0062 50.2655 74.2171 37.6502 62.8146 39.013C61.8807 37.9936 60.8645 37.0527 59.7764 36.1998C66.1778 34.912 75.9175 37.4376 79.0557 44.6267ZM47.9737 34.2619C60.6516 33.2867 75.1173 57.1296 52.8998 51.9159C72.6043 50.1405 49.5741 30.411 41.1972 40.3008C40.4966 40.0433 39.7778 39.8386 39.0467 39.6881C41.2847 36.1748 44.3104 34.3369 47.9737 34.2619ZM36.5961 45.7395C33.1203 45.3144 28.9319 47.5899 27.6941 50.5781C27.1109 50.6257 26.5308 50.705 25.9562 50.8156C31.9076 27.6979 64.1024 56.5669 40.3345 57.8672C48.5613 56.2919 47.7862 47.815 36.5961 45.7395ZM45.9858 17.258C54.0376 16.1828 55.6129 23.3219 48.3738 26.6602C51.9496 14.2949 35.7709 23.1094 37.2463 32.449C36.6053 31.7423 35.8588 31.1392 35.0333 30.6611C35.1583 25.66 39.1967 18.1583 45.9858 17.258ZM31.2824 13.8698C38.4966 4.40514 51.9371 11.2192 38.259 18.4583C45.0981 6.66816 27.3565 13.4572 30.7573 24.7848C30.1 24.2329 29.402 23.7314 28.6693 23.2844C28.4025 21.6195 28.4978 19.9167 28.9488 18.292C29.3997 16.6673 30.1957 15.159 31.2824 13.8698ZM17.5918 12.3444C19.6173 6.64315 29.407 5.13031 29.1319 12.582C28.6705 13.1498 28.2525 13.7517 27.8817 14.3824C25.2436 3.12986 13.9285 14.97 24.2683 21.509C19.4422 21.2465 15.979 15.5202 17.5918 12.3444ZM16.7791 38.3128C13.1783 40.8134 10.1902 40.4258 8.08968 37.6127C4.33883 28.7481 20.2049 18.6209 28.6818 26.3601C19.3547 21.2339 6.45181 37.3751 17.6418 36.9875C17.3293 37.4251 17.0292 37.8627 16.7791 38.3128ZM18.9171 45.5645C14.2536 37.4001 31.67 26.3476 36.5586 35.6622C30.1072 30.6611 14.5661 44.1266 26.9189 43.564C24.7434 46.9148 19.1547 46.4647 18.9171 45.5645ZM24.1933 54.0664C41.1096 48.14 37.4338 69.2573 28.5943 64.0686C33.8955 65.0689 37.1463 56.2044 29.5695 55.5167C23.9933 55.0166 22.3429 59.5551 21.8928 61.4681C21.4792 61.3959 21.0562 61.3959 20.6425 61.4681C20.2299 58.0923 21.4677 55.4792 24.1933 54.0664ZM19.0046 66.8068C22.2304 57.1921 33.3329 77.4217 38.4716 60.3178C39.1384 60.3678 39.7635 60.3928 40.347 60.3928C38.209 61.1055 37.4213 64.5687 40.347 63.4685C44.3104 60.2053 48.3988 59.5176 52.5122 61.4431C52.6616 61.5124 52.8232 61.5515 52.9877 61.5583C53.1522 61.565 53.3164 61.5391 53.471 61.4822C53.6255 61.4253 53.7672 61.3384 53.8881 61.2266C54.0089 61.1147 54.1064 60.9801 54.1751 60.8304C54.7627 58.3298 50.5618 58.3298 49.0239 57.9173C50.168 56.9695 50.9243 55.6348 51.1494 54.1664C57.4008 56.0668 65.9153 55.8668 66.9155 49.6779C68.23 50.4833 69.6005 51.1936 71.0164 51.8034C68.8034 51.8909 60.339 56.4669 64.5775 58.3924C72.3167 50.9532 74.6923 56.1669 76.8052 53.2412C77.5744 53.2715 78.3433 53.1744 79.0807 52.9536C111.301 95.4757 32.3077 108.479 24.3559 83.173C22.968 77.3341 16.8542 73.1707 19.0046 66.8068ZM44.8855 150.401C44.5104 148.775 44.6104 145.237 42.2974 145.75C42.1453 145.813 42.0072 145.905 41.8909 146.021C41.7746 146.138 41.6824 146.276 41.6197 146.428C41.557 146.581 41.5249 146.744 41.5254 146.908C41.5258 147.073 41.5587 147.236 41.6223 147.387C42.2821 149.095 42.5677 150.924 42.46 152.751C40.4784 154.314 38.1711 155.412 35.7084 155.964C35.7084 154.402 36.9587 149.851 34.4581 149.425C34.2927 149.436 34.1311 149.48 33.9827 149.554C33.8344 149.629 33.7022 149.731 33.594 149.857C33.4858 149.983 33.4037 150.129 33.3524 150.286C33.3011 150.444 33.2817 150.61 33.2954 150.776C33.4579 152.876 33.5579 155.164 32.9203 156.365C28.7944 157.377 16.7541 152.439 20.655 148.45C24.8435 145.462 20.8801 143.012 16.5291 138.173C9.90259 131.784 -1.13741 120.044 3.92624 110.117C7.33951 105.115 13.2533 103.678 19.7548 106.278C34.4456 114.305 56.5381 135.897 44.8855 150.401ZM95.8095 105.528C96.2096 99.8767 94.3217 95.1007 89.6456 89.9995C89.4201 89.7558 89.1071 89.6116 88.7753 89.5987C88.4435 89.5858 88.1202 89.7053 87.8765 89.9307C87.6328 90.1562 87.4886 90.4693 87.4757 90.8011C87.4628 91.1329 87.5822 91.4562 87.8077 91.6999C93.7841 97.7388 93.584 103.39 93.1339 110.454C93.1339 118.118 98.6102 124.582 100.06 131.709C102.023 141.386 57.8259 149 50.6868 143.762C51.537 136.01 48.1237 129.771 41.6848 121.532C43.1351 118.931 50.8994 113.917 49.6241 111.042C46.5734 110.179 42.5975 117.893 40.0469 119.606C33.6955 112.317 19.7298 98.2514 7.98966 103.565C12.3558 97.7269 17.598 92.5985 23.5307 88.3616C38.6966 105.528 84.7195 101.102 89.0205 74.721C92.5752 74.8594 96.084 75.573 99.4103 76.834C98.7852 82.8479 97.5224 99.8267 102.899 107.341C100.508 106.848 98.1428 106.243 95.8095 105.528ZM112.063 108.404C94.1842 109.229 105.049 74.8461 101.298 68.1696C98.7977 64.5688 95.8595 60.3303 97.5474 58.7549C99.1853 58.1048 101.948 59.9177 103.386 57.5047C104.937 53.6038 103.736 47.2273 110.025 45.777C110.738 47.2773 108.612 53.0161 111.175 53.9914C113.989 53.1662 112.113 46.9148 112.551 45.4019C114.44 45.3367 116.328 45.5302 118.165 45.977C118.396 48.2592 118.396 50.5589 118.165 52.8411C118.149 53.0145 118.17 53.1893 118.225 53.3542C118.281 53.5191 118.371 53.6706 118.488 53.7989C118.606 53.9272 118.749 54.0295 118.909 54.0992C119.068 54.169 119.241 54.2046 119.415 54.2039C121.915 53.4412 120.515 48.6902 120.778 46.7022C129.167 50.0905 128.479 59.8552 128.354 65.4565C128.142 79.8972 130.355 109.529 112.051 108.404H112.063ZM221.025 137.16C218.175 140.798 224.776 145.675 223.176 148.413C222.551 149.726 220.463 150.551 217.45 150.663C210.448 151.713 212.911 161.316 201.396 162.466C201.352 159.608 201.582 156.753 202.084 153.939C199.495 148.15 198.57 159.74 198.908 162.691C195.997 162.787 193.099 162.281 190.393 161.203C190.046 158.043 190.525 154.846 191.781 151.926C191.853 151.778 191.895 151.616 191.905 151.451C191.914 151.287 191.891 151.122 191.836 150.966C191.782 150.81 191.697 150.667 191.587 150.544C191.476 150.421 191.343 150.322 191.194 150.251C187.655 150.076 187.98 157.977 187.78 159.89C175.378 151.776 186.53 135.235 191.694 122.119C198.17 115.18 210.798 110.479 218.8 112.042C230.427 114.13 222.363 132.634 221.013 137.185L221.025 137.16ZM223.451 111.192C213.749 106.191 199.495 111.642 190.869 119.431C189.756 117.906 183.854 107.316 183.904 113.655C185.955 116.668 187.168 118.243 189.231 121.532C185.392 129.984 180.479 140.286 179.779 148.363C157.036 151.501 132.268 142.649 127.267 129.521C124.541 122.207 129.167 108.866 138.519 97.0886C138.622 96.9599 138.699 96.8121 138.745 96.6537C138.791 96.4953 138.805 96.3294 138.786 96.1655C138.767 96.0017 138.717 95.8431 138.636 95.699C138.556 95.5548 138.449 95.428 138.319 95.3257C134.681 94.8381 131.143 104.303 128.98 107.291C126.605 107.822 124.185 108.119 121.753 108.179C131.33 101.065 130.08 85.486 130.805 74.1334C133.618 72.5761 136.728 71.6303 139.932 71.3578C140.87 78.2594 145.808 81.5101 151.11 84.9484C155.323 94.7256 157.774 101.04 163.787 101.465C170.439 100.602 176.29 95.5133 184.43 92.6251C192.806 91.7249 201.158 89.937 206.51 83.8731C214.936 93.1752 220.625 102.302 223.438 111.217L223.451 111.192ZM154.685 86.8613C161.977 90.4122 169.925 92.4131 178.028 92.7376C164.663 99.4266 161.312 103.803 154.623 86.9238L154.685 86.8613ZM207.397 73.6458C203.997 76.9966 207.147 82.9104 201.208 85.1984C184.517 95.9759 138.582 89.5994 142.445 63.631C143.695 54.2539 149.647 41.6636 158.786 36.7625C161.437 40.0882 163.787 44.2642 167.263 46.3896C167.963 46.725 168.742 46.8604 169.515 46.781C170.287 46.7016 171.022 46.4104 171.639 45.9395C173.202 44.9268 178.753 38.938 180.179 39.6881C181.967 43.564 183.354 47.99 185.692 51.5158C184.342 51.5158 180.179 49.9404 179.716 52.3785C179.716 52.7101 179.848 53.0281 180.082 53.2626C180.317 53.4971 180.635 53.6288 180.966 53.6288C186.067 53.5413 188.18 54.8791 191.281 56.0668C194.207 55.2666 191.344 53.0036 189.668 52.6911C191.719 51.7159 193.282 49.7404 195.082 48.4901C202.671 52.9161 199.32 75.0461 211.586 60.9929C212.185 63.2907 212.102 65.7131 211.347 67.9644C210.592 70.2157 209.198 72.1986 207.335 73.6708L207.397 73.6458ZM208.435 76.2464C211.848 73.0082 214.361 69.3823 214.474 64.7063C217.315 64.7333 220.138 65.154 222.863 65.9566C220.425 71.9204 214.061 75.6713 208.372 76.2714L208.435 76.2464ZM235.079 65.9941C234.303 70.2825 227.714 64.0436 224.926 63.9811C221.538 62.835 217.988 62.2398 214.411 62.2182C212.936 52.316 206.097 65.1439 204.609 62.7058C203.896 61.0304 200.021 42.5513 193.119 46.7772C191.594 47.7149 189.368 51.1532 187.805 50.1655C179.391 34.4119 184.242 33.5867 168.676 44.4142C164.763 42.4638 163.2 36.9125 159.599 34.4119C153.135 34.937 148.684 42.3512 145.308 47.5524C139.544 41.8761 120.69 38.8004 130.492 29.5608C133.643 26.5977 138.957 23.4344 144.796 23.772C145.311 23.8662 145.843 23.7962 146.316 23.5718C146.789 23.3475 147.18 22.9802 147.434 22.5217C148.021 18.1708 139.932 16.0328 139.269 12.2819C145.308 5.83047 161.424 8.15599 169.414 16.1828C168.714 18.4583 165.113 22.2967 167.351 24.1971C167.507 24.2501 167.672 24.2717 167.836 24.2607C168 24.2498 168.161 24.2065 168.308 24.1333C168.456 24.0601 168.588 23.9585 168.696 23.8342C168.804 23.71 168.886 23.5657 168.939 23.4094C173.74 11.6318 183.704 -2.15884 190.568 4.53017C196.332 9.45629 203.071 21.1714 203.671 30.0985C203.671 30.4301 203.803 30.7481 204.038 30.9825C204.272 31.217 204.59 31.3487 204.922 31.3487C208.21 29.6984 204.184 22.1842 203.221 18.8459C215.499 16.933 223.513 17.8457 224.239 21.3465C224.176 24.2471 217.037 28.9982 214.849 31.9364C214.621 32.2104 214.458 32.5324 214.372 32.8783C214.286 33.2242 214.28 33.585 214.353 33.9337C214.427 34.2825 214.578 34.6101 214.796 34.8921C215.014 35.1741 215.293 35.4032 215.612 35.5622C230.753 42.9514 235.566 56.1544 235.079 65.9941Z" fill="#1C1F28"/>
<path d="M155.31 45.9397C161.562 44.7645 162.474 49.8406 164.925 48.6779C166.175 44.7145 159.049 43.0891 155.123 43.4517C154.808 43.4963 154.523 43.6588 154.324 43.9061C154.125 44.1534 154.028 44.4671 154.052 44.7835C154.076 45.0999 154.219 45.3954 154.453 45.6101C154.686 45.8248 154.993 45.9427 155.31 45.9397Z" fill="#1C1F28"/>
<path d="M45.6863 79.4839C57.1764 79.4089 55.8261 62.7176 44.7861 64.3305C35.1714 65.4182 36.6092 79.5339 45.6863 79.4839ZM46.9366 66.7685C54.4383 68.1063 51.2625 79.1463 43.8734 76.6458C45.6498 73.6369 46.6988 70.2546 46.9366 66.7685Z" fill="#1C1F28"/>
<path d="M74.2919 72.4217C85.5444 72.4217 84.5692 56.093 73.7293 57.6934C64.8272 58.8187 65.3899 72.4717 74.2919 72.4217ZM75.5422 60.0814C82.7688 60.9941 80.3182 71.5715 72.9666 69.7211C74.397 66.6901 75.2613 63.4232 75.5172 60.0814H75.5422Z" fill="#1C1F28"/>
<path d="M57.1758 76.76C56.0631 77.9352 57.9385 79.6606 59.0262 78.4479C59.828 77.5845 60.9319 77.0637 62.108 76.9939C63.2841 76.924 64.4418 77.3104 65.3402 78.0728C65.4621 78.1844 65.6049 78.2708 65.7604 78.3269C65.9159 78.3829 66.081 78.4076 66.2461 78.3995C66.4113 78.3913 66.5731 78.3505 66.7223 78.2794C66.8716 78.2083 67.0052 78.1083 67.1156 77.9852C68.1158 73.2467 58.7887 73.9969 57.1758 76.76Z" fill="#1C1F28"/>
<path d="M57.3631 72.4208C59.6136 72.1583 57.8007 69.3701 59.251 68.0448C61.0889 66.0444 64.6897 68.1323 63.6145 70.6204C63.5333 70.9421 63.5831 71.2828 63.7531 71.5677C63.9231 71.8526 64.1993 72.0583 64.521 72.1395C64.8426 72.2208 65.1833 72.1709 65.4682 72.0009C65.7531 71.8309 65.9588 71.5547 66.04 71.233C67.8029 65.9944 60.6638 62.4811 57.2881 66.457C56.2878 67.7448 54.8625 71.9207 57.3631 72.4208Z" fill="#1C1F28"/>
<path d="M60.8772 88.3741C65.2407 88.4867 64.9031 83.9481 66.616 81.4101C67.5662 80.7724 68.2914 80.0098 67.7288 79.4221C64.6281 79.2846 60.2271 81.21 56.0261 80.0473C54.7758 79.8222 54.3257 80.4348 54.3632 81.2975C54.5133 84.2232 57.3639 88.3741 60.8772 88.3741ZM58.3766 81.6601C59.2893 81.6601 60.8772 81.6601 62.6776 81.5101C65.3907 81.7476 61.99 85.486 60.4896 84.9484C58.3391 85.0359 56.8013 82.3353 58.3391 81.6601H58.3766Z" fill="#1C1F28"/>
</svg>
