<svg width="65" height="67" viewBox="0 0 65 67" fill="none" xmlns="http://www.w3.org/2000/svg">
<circle cx="50.3453" cy="22.4715" r="5.18516" fill="#EF564B"/>
<circle cx="15.2015" cy="22.4715" r="5.18516" fill="#EF564B"/>
<path d="M0.798319 32.5537L6.12751 32.1216L11.3127 31.8335L13.7612 31.2574L15.9217 30.5373L17.7941 29.6731L20.0986 28.5208L21.827 26.9364L23.5554 25.064L25.1398 23.0476L26.4361 21.0311L28.4525 16.7102L30.1809 12.9653L30.9011 12.6772L31.6212 12.9653V35.2903L31.0451 39.4673L30.469 41.3397L29.7488 44.2203L28.7406 47.245L27.5883 50.1256L26.004 52.5742L22.6912 57.7594L18.9464 62.3684L16.9299 64.6729L15.9217 65.9692L15.7777 66.1132L15.2015 66.2573L14.9135 66.1132L14.7695 65.8252L15.3456 60.3519L16.3538 54.4466V48.9734L16.2098 44.9405L15.6336 43.6442L14.7695 41.6277L13.1851 39.8994L9.00816 37.3068C9.00816 37.3068 5.40735 35.5784 4.39913 35.2903C3.3909 35.0023 2.09461 34.2821 2.09461 34.2821L0.798319 33.85L0.510254 33.2739L0.798319 32.5537Z" fill="#EF564B"/>
<path d="M64.4605 32.5537L59.1313 32.1216L53.9461 31.8335L51.4976 31.2574L49.3371 30.5373L47.4647 29.6731L45.1601 28.5208L43.4318 26.9364L41.7034 25.064L40.119 23.0476L38.8227 21.0311L36.8063 16.7102L35.0779 12.9653L34.3577 12.6772L33.6376 12.9653V35.2903L34.2137 39.4673L34.7898 41.3397L35.51 44.2203L36.5182 47.245L37.6705 50.1256L39.2548 52.5742L42.5676 57.7594L46.3124 62.3684L48.3289 64.6729L49.3371 65.9692L49.4811 66.1132L50.0572 66.2573L50.3453 66.1132L50.4893 65.8252L49.9132 60.3519L48.905 54.4466V48.9734L49.049 44.9405L49.6251 43.6442L50.4893 41.6277L52.0737 39.8994L56.2506 37.3068L60.8597 35.2903L63.1642 34.2821L64.4605 33.85L64.7485 33.2739L64.4605 32.5537Z" fill="#EF564B"/>
<g clip-path="url(#clip0_47_36)">
<path d="M31.5433 2.00311C32.0907 1.02138 32.3643 0.530518 32.7735 0.530518C33.1827 0.530518 33.4562 1.02138 34.0036 2.00311L34.1454 2.25718C34.3009 2.53632 34.3787 2.67588 34.4997 2.76792C34.6207 2.85996 34.7719 2.89409 35.0744 2.96237L35.3492 3.02459C36.4121 3.26527 36.9432 3.38539 37.0698 3.79199C37.196 4.19817 36.8339 4.62205 36.1092 5.4694L35.9217 5.68847C35.716 5.92915 35.6128 6.04971 35.5665 6.19835C35.5203 6.34742 35.5359 6.50816 35.567 6.82921L35.5955 7.12174C35.7048 8.25254 35.7597 8.81773 35.4287 9.06878C35.0977 9.32026 34.5999 9.09081 33.6052 8.63279L33.3473 8.51439C33.0647 8.3839 32.9234 8.31909 32.7735 8.31909C32.6235 8.31909 32.4822 8.3839 32.1996 8.51439L31.9421 8.63279C30.947 9.09081 30.4492 9.31982 30.1187 9.06921C29.7872 8.81773 29.8421 8.25254 29.9514 7.12174L29.98 6.82964C30.0111 6.50816 30.0266 6.34742 29.98 6.19878C29.9342 6.04971 29.8309 5.92915 29.6252 5.6889L29.4377 5.4694C28.713 4.62249 28.351 4.1986 28.4771 3.79199C28.6037 3.38539 29.1352 3.26483 30.1982 3.02459L30.473 2.96237C30.775 2.89409 30.9258 2.85996 31.0472 2.76792C31.1682 2.67588 31.246 2.53632 31.4016 2.25718L31.5433 2.00311Z" fill="#EF564B"/>
</g>
<defs>
<clipPath id="clip0_47_36">
<rect width="10.3703" height="9.79419" fill="white" transform="translate(27.5884 0.00244141)"/>
</clipPath>
</defs>
</svg>
