<svg width="140" height="140" viewBox="0 0 140 140" fill="none" xmlns="http://www.w3.org/2000/svg">
<path d="M8.82579 128.98C11.5474 131.019 22.5696 131.633 52.307 131.57C46.3122 130.5 47.4441 129.05 47.0283 116.544C45.9083 117.015 40.3307 119.143 40.3307 119.143C40.1123 125.63 40.6443 129.067 36.9007 128.494C34.6908 128.159 25.6671 116.824 23.1569 113.311C14.304 100.921 15.9952 100.113 16.446 99.5609C16.971 98.9197 23.908 93.9476 29.1524 90.7143C31.5324 88.7158 39.4928 77.5095 39.4928 77.5095C40.5498 75.8449 40.3384 73.1919 37.4264 70.4094C36.6284 71.1661 35.0863 72.3939 34.0664 73.2941C34.9533 76.9845 33.6464 78.7373 31.5464 79.6445C29.9434 80.3333 29.3764 79.9945 28.2452 78.8535C18.7301 85.108 11.6552 75.6748 12.2236 67.9881C12.6261 62.5449 19.6779 54.9128 19.7332 54.8722C22.8493 51.8634 26.1374 49.0379 29.5808 46.4099C36.0747 41.6898 48.6033 45.8436 50.0292 46.1236C51.0932 40.9499 55.3149 39.6899 56.1402 37.8146C58.1107 33.3346 61.9985 28.723 67.4004 26.7175C72.3004 24.8975 79.1114 24.5762 86.7512 27.2971C92.0096 29.1731 99.7579 34.3636 101.674 38.7904C102.602 40.9317 103.782 44.5535 105.874 46.7704C108.084 49.1168 114.189 59.6 109.633 62.2124C108.105 63.0853 106.891 61.3528 105.956 62.0283C103.903 63.5214 108.132 69.0605 105.24 71.0723C103.712 72.1363 102.007 70.24 101.025 71.0023C100.043 71.7646 102.005 76.7591 96.3188 77.4962C96.7689 78.1367 97.7188 79.8013 98.0688 80.3942C93.8261 83.3545 89.8788 86.6018 81.2352 92.3852C80.7858 94.0189 79.9694 95.5284 78.8482 96.7987C78.3512 115.881 78.8412 108.699 75.9838 121.469C81.8155 125.623 84.1136 127.669 80.1509 131.393C100.572 130.936 122.391 131.617 128.585 131.085C137.847 130.294 137.11 121.728 135.548 60.9013C135.16 45.5209 97.1483 22.9375 86.5692 13.9075C75.9901 4.87755 64.3659 6.91735 52.1502 17.53C42.1241 26.2499 4.5698 50.9445 4.14 62.5533C2.8646 96.6699 3.06199 124.662 8.82579 128.98Z" fill="#EF564B" fill-opacity="0.1"/>
<path d="M115.977 114.17C122.457 118.856 124.715 120.725 126.741 122.22C127.907 123.086 129.885 122.405 125.363 118.83C107.152 104.705 88.3882 93.9622 81.8404 93.0277C87.222 88.4987 94.9906 84.0313 103.783 77.8244C111.285 72.5317 116.005 67.4098 124.552 65.902C125.672 65.7046 126.031 64.3949 124.906 64.1835C115.946 64.5335 108.093 73.4319 98.1413 79.2706C97.876 78.8338 97.5813 78.3774 97.2621 77.9133C102.964 77.2518 99.9767 70.5633 102.377 71.7267C111.176 74.3118 103.585 61.4073 106.913 62.5672C108.318 63.5556 111.292 62.7576 111.613 60.0024C112.479 52.5404 105.474 46.9404 103.305 41.3208C101.559 37.2216 99.8612 32.7388 88.2447 27.577C73.4614 21.0075 62.7836 24.5551 56.4129 35.5367C54.5439 39.5197 50.8472 40.3723 49.4563 45.0924C31.9745 39.4308 25.6108 47.0769 14.7699 60.4049C14.0686 59.814 13.2398 59.3937 12.3486 59.1771C12.1238 59.1477 11.8964 59.2061 11.7136 59.3401C11.5307 59.4742 11.4067 59.6736 11.3672 59.8968C11.3277 60.12 11.3758 60.3499 11.5015 60.5386C11.6272 60.7272 11.8208 60.8601 12.042 60.9096C12.7012 61.0945 13.3084 61.43 13.8158 61.8896C6.33982 71.1044 17.7302 86.7095 28.3058 79.8348C31.7708 82.8448 36.2998 78.8184 34.9901 73.8596C35.9246 73.028 36.7086 72.3252 37.4317 71.6154C40.1939 74.3237 39.3693 75.3191 38.3186 77.0313C36.6547 79.7389 30.2021 88.3258 28.0398 90.1815C21.8875 94.2191 18.7431 95.9383 15.2578 99.5531C14.8693 100.038 13.6961 100.992 20.2642 110.692C17.7602 112.597 15.6481 114.968 14.044 117.675C13.274 119.108 14.604 120.328 15.7149 118.597C17.222 116.236 19.5649 113.583 21.4549 112.423C27.7227 121.161 41.2481 141.139 40.9849 120.029C42.6012 119.36 44.7908 118.473 46.1614 117.88C46.8096 130.06 42.492 132.081 60.3077 131.767C65.2777 131.787 74.2013 131.535 79.9777 131.46C81.5534 131.44 82.6237 130.007 82.8694 128.59C83.2649 126.257 82.2555 125.234 76.9558 121.388C79.0299 112.016 79.8258 112.439 79.7187 96.6285C80.1564 96.0154 80.5032 95.3423 80.7484 94.63C84.2001 94.399 98.0804 101.226 115.977 114.17ZM81.9769 90.7408C83.1837 86.5254 84.4731 81.8123 86.9287 76.9151C88.666 76.063 90.255 74.937 91.6348 73.5803C93.4853 75.6845 95.1769 77.9232 96.6958 80.2779C90.7549 84.4135 85.2095 88.3559 81.9769 90.7429V90.7408ZM55.4105 45.9996C58.3092 43.019 60.9405 44.4918 63.2505 42.6032C74.9482 32.9992 77.8672 40.5501 86.1748 48.3432C83.8557 48.5882 82.8939 50.5664 84.3807 50.7715C85.3292 50.9073 85.7387 49.4954 88.6983 50.362C90.6959 51.8619 92.7728 53.2532 94.9199 54.5298C101.332 61.9715 88.9874 79.0298 78.4552 76.4174C65.8125 73.2807 53.8691 65.7298 53.0095 55.0849C52.614 50.2353 53.5758 47.8889 55.4105 45.9996ZM61.8421 71.1898C66.4054 74.4528 71.5889 76.7463 77.0727 77.9287C76.3769 79.5926 75.5376 81.5568 74.8558 83.2074C71.4454 81.7598 62.2999 77.4156 59.7141 75.6082C60.4029 74.1256 61.1123 72.6527 61.8421 71.1898ZM56.4899 78.4698C54.5775 82.9855 53.2363 85.8198 51.2441 85.9794C50.003 86.0746 47.2135 85.3998 46.6675 82.9785C46.2475 81.1025 54.0546 69.8759 55.8277 65.7291C57.212 67.3343 58.7495 68.8008 60.4183 70.1076C58.8272 73.2548 57.4881 76.1108 56.4899 78.4698ZM33.7357 72.6451C33.3675 72.9251 32.9993 73.3339 33.1701 73.8316C34.3699 77.2966 31.6007 80.8568 29.2543 78.2038C27.5631 76.7716 24.5482 81.8438 19.5012 79.0291C20.0612 77.7334 22.836 76.4034 21.7111 74.9775C20.1214 74.2775 19.0371 77.1944 17.9934 78.1086C16.7392 77.1752 15.6746 76.011 14.8567 74.6786C15.6134 73.7924 16.7187 72.5373 17.4411 71.6847C17.5914 71.5063 17.665 71.2756 17.6459 71.0431C17.6267 70.8106 17.5164 70.5951 17.3389 70.4436C15.8794 69.6316 15.0198 72.23 13.9698 73.0147C11.2139 66.2345 15.9949 61.2547 21.9022 54.6047C25.9741 56.7327 34.7248 66.1309 36.4097 70.1895C35.6299 70.949 34.778 71.7134 33.7343 72.6479L33.7357 72.6451ZM23.1965 53.3181C25.1273 51.4569 27.1632 49.708 29.2942 48.08C33.2709 52.595 39.8936 59.7224 41.5372 64.9612C42.1105 66.161 39.1026 67.8669 37.7656 68.9512C35.4899 64.3998 27.6366 55.9781 23.1965 53.3181ZM38.7274 70.431C40.637 68.828 44.0537 67.3209 43.2151 64.4558C41.4756 58.8908 34.7899 51.6535 30.7299 47.0496C36.4524 42.9847 44.8832 45.133 49.1252 46.8319C48.0409 52.8337 52.0379 59.2317 54.609 64.1765C53.0333 67.8389 48.8389 74.442 46.7928 78.2612C44.6969 77.5709 42.7538 76.4826 41.0703 75.0559C41.1893 73.7595 40.637 72.3203 38.7274 70.431ZM37.8062 127.445C32.7592 127.895 17.3578 103.825 16.7236 100.565C17.1392 100.094 17.5909 99.6557 18.0746 99.2549C23.7901 106.587 34.2257 113.578 39.2321 119.695C39.1908 126.477 38.8905 126.92 37.8062 127.445ZM81.1362 128.297C80.5293 130.569 76.7101 130.091 71.2942 130.125C62.8242 130.187 49.9589 131.039 48.5267 128.836C48.2258 128.311 48.0684 127.716 48.0703 127.111C56.016 126.421 68.9891 122.671 75.6664 122.631C81.1586 126.612 81.4519 127.131 81.1376 128.297H81.1362ZM75.2772 120.856C68.3899 121.068 55.9999 124.6 47.9828 125.351C47.8939 122.677 47.9422 119.663 47.9128 117.105C52.3662 115.005 53.7445 113.565 57.9116 106.963C59.6371 104.227 60.9671 102.42 60.2916 101.963C59.0708 101.137 58.0005 103.532 56.4591 105.967C53.4666 110.701 52.7078 112.501 49.6425 114.326C47.7749 115.438 45.0512 116.56 40.4438 118.359C35.24 112.215 25.1999 105.442 19.4438 98.1503C21.5788 96.4927 24.9276 94.2555 29.136 91.5815C32.0823 88.9215 38.6238 80.1778 40.4921 76.836C42.1345 78.1417 43.9895 79.1545 45.9759 79.8299C43.2277 84.9455 48.6289 88.281 52.8856 87.5642C54.679 87.2639 57.2032 81.2145 58.9833 77.2245C62.2229 79.3588 70.933 83.4447 74.1929 84.8293C70.4759 92.9801 70.4129 97.1612 77.9729 97.6113C78.0751 112.224 77.1056 112.552 75.2786 120.856H75.2772ZM78.4419 95.1697C77.31 96.6152 73.4425 95.8172 72.9924 93.2321C72.5563 90.7359 77.2148 82.2988 78.8514 78.2269C80.7572 78.4996 82.6994 78.3599 84.5466 77.8174C80.4593 86.8229 80.2535 92.8464 78.4433 95.1697H78.4419Z" fill="#1D1D1D" fill-opacity="0.2"/>
<path d="M70.5865 41.4094C71.4197 41.2448 72.2803 41.2841 73.095 41.524C73.9097 41.7638 74.6543 42.1972 75.2653 42.787C76.022 43.6403 77.1959 42.549 76.561 41.597C75.021 39.2982 69.771 38.5758 69.561 40.6968C69.5155 41.1847 70.1021 41.4913 70.5865 41.4094Z" fill="#1D1D1D" fill-opacity="0.2"/>
<path d="M67.8718 55.5759C75.3674 57.2132 80.5033 45.1333 71.2318 43.0739C62.3194 41.0957 59.196 53.8231 67.8718 55.5759ZM64.5433 48.4688C67.435 48.9532 71.2003 49.5258 74.3713 49.8191C73.4508 55.7327 63.3974 54.9284 64.5433 48.4688Z" fill="#1D1D1D" fill-opacity="0.2"/>
<path d="M73.3965 58.3182C73.4055 58.5454 73.5022 58.7604 73.6662 58.918C73.8302 59.0756 74.0489 59.1637 74.2764 59.1637C74.5038 59.1637 74.7225 59.0756 74.8865 58.918C75.0505 58.7604 75.1472 58.5454 75.1563 58.3182C75.1334 58.0429 75.179 57.7662 75.2889 57.5128C75.3988 57.2594 75.5697 57.0371 75.7863 56.8657C76.7481 56.1832 77.8324 57.0155 78.398 55.9655C78.937 54.9624 76.27 54.1784 74.429 55.7877C74.0676 56.0966 73.7854 56.4875 73.6058 56.9277C73.4262 57.3679 73.3544 57.8446 73.3965 58.3182Z" fill="#1D1D1D" fill-opacity="0.2"/>
<path d="M86.6216 65.9092C94.6618 66.5392 97.249 54.4628 88.3471 52.9837C79.1813 51.4605 77.3228 65.1805 86.6216 65.9092ZM82.2634 58.2498C85.1075 58.7272 88.9071 59.3208 92.16 59.6344C91.6959 66.3187 80.6331 65.1385 82.2634 58.2498Z" fill="#1D1D1D" fill-opacity="0.2"/>
<path d="M71.2065 61.3125C70.9796 61.2851 70.7509 61.3472 70.5689 61.4855C70.387 61.6237 70.2659 61.8274 70.2315 62.0533C70.197 62.2793 70.2518 62.5098 70.3842 62.696C70.5167 62.8823 70.7164 63.0097 70.9412 63.0513C75.0404 63.6582 74.7534 64.7635 75.0404 65.3774C75.3743 66.0935 76.9563 66.1278 76.7204 64.7474C76.4845 63.367 75.4968 61.6261 71.2065 61.3125Z" fill="#1D1D1D" fill-opacity="0.2"/>
<path d="M77.3456 89.7539C74.6786 88.8264 73.0826 92.6939 76.3222 93.6039C79.0914 94.3921 79.8698 90.6338 77.3456 89.7539Z" fill="#1D1D1D" fill-opacity="0.2"/>
<path d="M51.8699 79.9523C51.6434 79.7992 51.3877 79.6946 51.1189 79.6451C50.85 79.5956 50.5738 79.6022 50.3076 79.6646C50.0415 79.7269 49.7911 79.8437 49.5722 80.0074C49.3533 80.1712 49.1707 80.3785 49.0357 80.6163C48.9008 80.854 48.8165 81.1171 48.7881 81.389C48.7598 81.6609 48.788 81.9358 48.8709 82.1962C48.9539 82.4567 49.0898 82.6972 49.2702 82.9027C49.4506 83.1081 49.6715 83.274 49.919 83.39C50.1455 83.543 50.4012 83.6476 50.6701 83.6971C50.9389 83.7466 51.2151 83.74 51.4813 83.6776C51.7475 83.6153 51.9979 83.4985 52.2168 83.3348C52.4356 83.171 52.6183 82.9637 52.7532 82.7259C52.8882 82.4882 52.9724 82.2251 53.0008 81.9532C53.0292 81.6813 53.001 81.4065 52.918 81.146C52.8351 80.8855 52.6992 80.645 52.5188 80.4395C52.3384 80.2341 52.1175 80.0682 51.8699 79.9523Z" fill="#1D1D1D" fill-opacity="0.2"/>
</svg>
