<svg width="14" height="14" viewBox="0 0 14 14" fill="none" xmlns="http://www.w3.org/2000/svg">
<path d="M11.0834 2.33332H9.91675V1.74999C9.91675 1.59528 9.85529 1.44691 9.74589 1.33751C9.6365 1.22811 9.48812 1.16666 9.33342 1.16666C9.17871 1.16666 9.03033 1.22811 8.92094 1.33751C8.81154 1.44691 8.75008 1.59528 8.75008 1.74999V2.33332H5.25008V1.74999C5.25008 1.59528 5.18862 1.44691 5.07923 1.33751C4.96983 1.22811 4.82146 1.16666 4.66675 1.16666C4.51204 1.16666 4.36367 1.22811 4.25427 1.33751C4.14487 1.44691 4.08342 1.59528 4.08342 1.74999V2.33332H2.91675C2.45262 2.33332 2.0075 2.5177 1.67931 2.84589C1.35112 3.17408 1.16675 3.61919 1.16675 4.08332V11.0833C1.16675 11.5475 1.35112 11.9926 1.67931 12.3208C2.0075 12.6489 2.45262 12.8333 2.91675 12.8333H11.0834C11.5475 12.8333 11.9927 12.6489 12.3209 12.3208C12.649 11.9926 12.8334 11.5475 12.8334 11.0833V4.08332C12.8334 3.61919 12.649 3.17408 12.3209 2.84589C11.9927 2.5177 11.5475 2.33332 11.0834 2.33332ZM11.6667 11.0833C11.6667 11.238 11.6053 11.3864 11.4959 11.4958C11.3865 11.6052 11.2381 11.6667 11.0834 11.6667H2.91675C2.76204 11.6667 2.61367 11.6052 2.50427 11.4958C2.39487 11.3864 2.33341 11.238 2.33341 11.0833V6.99999H11.6667V11.0833ZM11.6667 5.83332H2.33341V4.08332C2.33341 3.92861 2.39487 3.78024 2.50427 3.67084C2.61367 3.56145 2.76204 3.49999 2.91675 3.49999H4.08342V4.08332C4.08342 4.23803 4.14487 4.38641 4.25427 4.4958C4.36367 4.6052 4.51204 4.66666 4.66675 4.66666C4.82146 4.66666 4.96983 4.6052 5.07923 4.4958C5.18862 4.38641 5.25008 4.23803 5.25008 4.08332V3.49999H8.75008V4.08332C8.75008 4.23803 8.81154 4.38641 8.92094 4.4958C9.03033 4.6052 9.17871 4.66666 9.33342 4.66666C9.48812 4.66666 9.6365 4.6052 9.74589 4.4958C9.85529 4.38641 9.91675 4.23803 9.91675 4.08332V3.49999H11.0834C11.2381 3.49999 11.3865 3.56145 11.4959 3.67084C11.6053 3.78024 11.6667 3.92861 11.6667 4.08332V5.83332Z" fill="#7B7B7B"/>
</svg>
