<svg width="28" height="28" viewBox="0 0 28 28" fill="none" xmlns="http://www.w3.org/2000/svg">
<path d="M14 3.875C12.2434 3.87441 10.5169 4.33084 8.99003 5.19943C7.4632 6.06803 6.18862 7.31891 5.29152 8.82916C4.39443 10.3394 3.90568 12.0571 3.8733 13.8134C3.84093 15.5697 4.26604 17.3042 5.10687 18.8465L3.90874 23.0484C3.86658 23.1959 3.86546 23.3522 3.90549 23.5003C3.94553 23.6484 4.0252 23.7829 4.13594 23.8891C4.24668 23.9953 4.38429 24.0693 4.53396 24.1032C4.68363 24.137 4.8397 24.1294 4.98537 24.0811L8.93074 22.7666C10.2754 23.5436 11.7809 24.0009 13.3306 24.1031C14.8803 24.2052 16.4327 23.9495 17.8678 23.3557C19.3029 22.7619 20.5821 21.8459 21.6065 20.6787C22.631 19.5114 23.3732 18.1241 23.7757 16.6241C24.1782 15.124 24.2302 13.5516 23.9278 12.0282C23.6253 10.5049 22.9765 9.07154 22.0314 7.83908C21.0864 6.60661 19.8705 5.60807 18.4779 4.92069C17.0852 4.23331 15.5531 3.87552 14 3.875ZM10.625 12.3125C10.625 12.0887 10.7139 11.8741 10.8721 11.7159C11.0304 11.5576 11.245 11.4688 11.4687 11.4688H16.5312C16.755 11.4688 16.9696 11.5576 17.1279 11.7159C17.2861 11.8741 17.375 12.0887 17.375 12.3125C17.375 12.5363 17.2861 12.7509 17.1279 12.9091C16.9696 13.0674 16.755 13.1563 16.5312 13.1563H11.4687C11.245 13.1563 11.0304 13.0674 10.8721 12.9091C10.7139 12.7509 10.625 12.5363 10.625 12.3125ZM11.4687 14.8438H14.8437C15.0675 14.8438 15.2821 14.9326 15.4404 15.0909C15.5986 15.2491 15.6875 15.4637 15.6875 15.6875C15.6875 15.9113 15.5986 16.1259 15.4404 16.2841C15.2821 16.4424 15.0675 16.5313 14.8437 16.5313H11.4687C11.245 16.5313 11.0304 16.4424 10.8721 16.2841C10.7139 16.1259 10.625 15.9113 10.625 15.6875C10.625 15.4637 10.7139 15.2491 10.8721 15.0909C11.0304 14.9326 11.245 14.8438 11.4687 14.8438Z" fill="#0C276A"/>
</svg>
