<svg width="30" height="30" viewBox="0 0 30 30" fill="none" xmlns="http://www.w3.org/2000/svg">
<path d="M21.6124 14.9601C21.6138 15.1784 21.5721 15.3948 21.4897 15.597C21.4074 15.7993 21.286 15.9833 21.1326 16.1386C20.9791 16.2939 20.7966 16.4174 20.5954 16.5022C20.3942 16.587 20.1783 16.6313 19.9599 16.6326C19.7415 16.6314 19.5254 16.5872 19.3241 16.5026C19.1227 16.4179 18.9401 16.2943 18.7865 16.139C18.6329 15.9837 18.5114 15.7996 18.429 15.5973C18.3466 15.395 18.3049 15.1785 18.3062 14.9601C18.305 14.7417 18.3469 14.5253 18.4294 14.3232C18.5119 14.121 18.6334 13.9371 18.7869 13.7819C18.9405 13.6267 19.1231 13.5033 19.3244 13.4187C19.5256 13.3341 19.7416 13.29 19.9599 13.2888C20.8724 13.2888 21.6124 14.0376 21.6124 14.9601Z" fill="#313131"/>
<path fill-rule="evenodd" clip-rule="evenodd" d="M22.665 9.26011C21.6037 9.11011 20.2375 9.11011 18.5337 9.11011H11.4662C9.76248 9.11011 8.39623 9.11011 7.33498 9.26011C6.23873 9.41636 5.32498 9.75011 4.64498 10.5351C3.96623 11.3201 3.75748 12.2801 3.74998 13.4014C3.74248 14.4839 3.92373 15.8539 4.14873 17.5614L4.60498 21.0264C4.78123 22.3614 4.92373 23.4426 5.14498 24.2889C5.37623 25.1689 5.71623 25.8989 6.35498 26.4639C6.99248 27.0301 7.75498 27.2751 8.64748 27.3889C9.50623 27.5001 10.585 27.5001 11.9162 27.5001H18.0837C19.415 27.5001 20.4937 27.5001 21.3525 27.3901C22.2462 27.2751 23.0062 27.0301 23.645 26.4651C24.2837 25.8989 24.6237 25.1689 24.855 24.2889C25.0762 23.4426 25.2187 22.3614 25.395 21.0264L25.8512 17.5614C26.0762 15.8539 26.2575 14.4839 26.25 13.4014C26.2412 12.2801 26.035 11.3201 25.355 10.5351C24.675 9.75011 23.7612 9.41636 22.665 9.26011ZM7.56498 10.9151C6.65748 11.0451 6.19748 11.2801 5.88998 11.6364C5.57998 11.9926 5.40998 12.4851 5.40248 13.4126C5.39623 14.3639 5.55998 15.6176 5.79623 17.4064L5.85873 17.8801L6.32248 17.5401C7.52248 16.6614 9.29248 16.7051 10.4325 17.6589L14.6625 21.2001C15.0625 21.5351 15.7512 21.5976 16.2487 21.3051L16.5425 21.1314C17.9487 20.3039 19.835 20.3914 21.1325 21.3689L23.4225 23.0939C23.535 22.4751 23.6362 21.7139 23.7637 20.7501L24.2037 17.4064C24.44 15.6189 24.6037 14.3639 24.5962 13.4126C24.59 12.4851 24.42 11.9926 24.1112 11.6376C23.8025 11.2801 23.3425 11.0451 22.4337 10.9151C21.5025 10.7826 20.2525 10.7814 18.4687 10.7814H11.5312C9.74748 10.7814 8.49623 10.7826 7.56498 10.9151Z" fill="#313131"/>
<path opacity="0.7" d="M8.60008 5.625C7.03508 5.625 5.75133 6.675 5.32383 8.0675C5.31511 8.09656 5.30678 8.12573 5.29883 8.155C5.74633 8.005 6.21133 7.905 6.68383 7.83875C7.89883 7.665 9.43508 7.665 11.2201 7.665H18.9726C20.7576 7.665 22.2938 7.665 23.5101 7.83875C23.9813 7.905 24.4476 8.00375 24.8951 8.155C24.8871 8.12573 24.8788 8.09656 24.8701 8.0675C24.4413 6.675 23.1576 5.625 21.5951 5.625H8.60008Z" fill="#313131"/>
<path opacity="0.4" d="M11.0738 2.5H18.9263C19.1875 2.5 19.3888 2.5 19.5638 2.51875C20.1622 2.58573 20.7305 2.8162 21.2066 3.18486C21.6826 3.55353 22.048 4.04617 22.2625 4.60875H7.73755C7.95211 4.04617 8.31745 3.55353 8.7935 3.18486C9.26955 2.8162 9.83792 2.58573 10.4363 2.51875C10.6113 2.5 10.8113 2.5 11.0738 2.5Z" fill="#313131"/>
</svg>
