<svg width="22" height="22" viewBox="0 0 22 22" fill="none" xmlns="http://www.w3.org/2000/svg">
<path d="M1.83325 17.4167C1.83325 18.975 3.02492 20.1667 4.58325 20.1667H17.4166C18.9749 20.1667 20.1666 18.975 20.1666 17.4167V10.0833H1.83325V17.4167ZM17.4166 3.66667H15.5833V2.75C15.5833 2.2 15.2166 1.83334 14.6666 1.83334C14.1166 1.83334 13.7499 2.2 13.7499 2.75V3.66667H8.24992V2.75C8.24992 2.2 7.88325 1.83334 7.33325 1.83334C6.78325 1.83334 6.41659 2.2 6.41659 2.75V3.66667H4.58325C3.02492 3.66667 1.83325 4.85834 1.83325 6.41667V8.25H20.1666V6.41667C20.1666 4.85834 18.9749 3.66667 17.4166 3.66667Z" fill="#2BC7FA"/>
</svg>
