<svg width="33" height="34" viewBox="0 0 33 34" fill="none" xmlns="http://www.w3.org/2000/svg">
<path fill-rule="evenodd" clip-rule="evenodd" d="M19.8738 5.7294L26.7517 10.8097C28.0772 11.769 28.8659 13.3028 28.875 14.939V24.1356C28.7898 27.0845 26.3404 29.4118 23.3909 29.3461H9.62211C6.66764 29.4191 4.21018 27.0897 4.125 24.1356V14.939C4.13407 13.3028 4.92276 11.769 6.24829 10.8097L13.1262 5.7294C15.1344 4.25687 17.8656 4.25687 19.8738 5.7294ZM10.6382 23.836H22.3618C22.9014 23.836 23.3388 23.3986 23.3388 22.859C23.3388 22.3194 22.9014 21.882 22.3618 21.882H10.6382C10.0986 21.882 9.66119 22.3194 9.66119 22.859C9.66119 23.3986 10.0986 23.836 10.6382 23.836Z" fill="#7B7B7B" fill-opacity="0.5"/>
</svg>
