<svg width="33" height="34" viewBox="0 0 33 34" fill="none" xmlns="http://www.w3.org/2000/svg">
<path fill-rule="evenodd" clip-rule="evenodd" d="M25.7311 4.625C27.4815 4.73242 28.9222 6.04161 29.1961 7.77375L30.1311 24.0125C30.3236 27.3675 28.0823 30.1175 25.2498 30.1175H7.66359C4.77609 30.1175 2.52109 27.2438 2.76859 23.8888L3.96484 7.77375C4.23878 6.04161 5.67947 4.73242 7.42984 4.625H25.7311ZM23.1873 19.9288H25.7311L25.5936 19.9838C26.1328 19.9838 26.5698 19.5467 26.5698 19.0075C26.5698 18.4683 26.1328 18.0312 25.5936 18.0312H23.0498C21.2741 18.1207 19.6904 19.1765 18.9248 20.7812C18.4314 21.7809 17.4133 22.4137 16.2986 22.4137C15.1838 22.4137 14.1657 21.7809 13.6723 20.7812C12.9116 19.1724 11.325 18.1147 9.54734 18.0312H7.16859C6.62942 18.0312 6.19234 18.4683 6.19234 19.0075C6.19234 19.5467 6.62942 19.9838 7.16859 19.9838H9.54734C10.62 20.0242 11.5826 20.6536 12.0498 21.62C12.8847 23.2509 14.5626 24.2769 16.3948 24.2769C18.227 24.2769 19.9049 23.2509 20.7398 21.62C21.1826 20.649 22.1226 19.9995 23.1873 19.9288Z" fill="#7B7B7B" fill-opacity="0.5"/>
</svg>
