<svg width="23" height="23" viewBox="0 0 23 23" fill="none" xmlns="http://www.w3.org/2000/svg">
<path fill-rule="evenodd" clip-rule="evenodd" d="M3.70825 9.27067V13.7293C3.70825 15.8322 3.70825 16.8827 4.37009 17.5362C4.9705 18.1293 5.90458 18.1834 7.66642 18.1889C7.57383 17.5702 7.55459 16.8322 7.54909 15.9633C7.54909 15.8748 7.56652 15.7872 7.60039 15.7056C7.63426 15.6239 7.6839 15.5497 7.74648 15.4872C7.80905 15.4247 7.88333 15.3751 7.96507 15.3414C8.04681 15.3076 8.1344 15.2903 8.22284 15.2904C8.31132 15.2893 8.39914 15.3057 8.4813 15.3385C8.56346 15.3714 8.63835 15.4201 8.70168 15.4819C8.76501 15.5437 8.81555 15.6174 8.85041 15.6987C8.88526 15.78 8.90376 15.8674 8.90483 15.9559C8.91033 16.9313 8.93509 17.6224 9.03317 18.1467C9.12758 18.6528 9.27792 18.9443 9.49792 19.1624C9.74817 19.4099 10.0993 19.5703 10.7629 19.6574C11.4449 19.7491 12.3488 19.75 13.6458 19.75H14.5488C15.8458 19.75 16.7497 19.7482 17.4326 19.6583C18.0953 19.5703 18.4464 19.409 18.6958 19.1624C18.946 18.9149 19.1092 18.5684 19.1981 17.9139C19.2898 17.2411 19.2916 16.3473 19.2916 15.0677V7.93233C19.2916 6.65175 19.2898 5.75983 19.1981 5.08608C19.1092 4.43158 18.946 4.08417 18.6967 3.83758C18.4464 3.59008 18.0953 3.42967 17.4317 3.34258C16.7506 3.25 15.8468 3.25 14.5497 3.25H13.6468C12.3497 3.25 11.4458 3.25183 10.7629 3.34167C10.1002 3.42967 9.74909 3.591 9.49884 3.83758C9.27884 4.05483 9.1285 4.34725 9.03409 4.85325C8.936 5.37758 8.91125 6.06875 8.90575 7.04408C8.90468 7.13256 8.88618 7.21996 8.85132 7.3013C8.81646 7.38263 8.76593 7.4563 8.7026 7.5181C8.63927 7.57989 8.56438 7.62861 8.48222 7.66147C8.40006 7.69432 8.31223 7.71067 8.22375 7.70958C8.13532 7.7097 8.04773 7.69239 7.96599 7.65863C7.88425 7.62487 7.80997 7.57533 7.74739 7.51284C7.68482 7.45035 7.63518 7.37614 7.60131 7.29444C7.56744 7.21275 7.55 7.12519 7.55 7.03675C7.5555 6.16775 7.57475 5.42983 7.66733 4.81108C5.9055 4.81658 4.97234 4.87067 4.371 5.46375C3.70917 6.11733 3.70825 7.16875 3.70825 9.27067ZM5.94034 11.973C5.87748 11.9113 5.82754 11.8377 5.79346 11.7565C5.75937 11.6753 5.74181 11.5881 5.74181 11.5C5.74181 11.4119 5.75937 11.3247 5.79346 11.2435C5.82754 11.1623 5.87748 11.0887 5.94034 11.027L7.74617 9.24317C7.87406 9.11743 8.04623 9.04697 8.22559 9.04697C8.40494 9.04697 8.57711 9.11743 8.705 9.24317C8.76786 9.30486 8.81779 9.37847 8.85188 9.45968C8.88597 9.5409 8.90352 9.62809 8.90352 9.71617C8.90352 9.80424 8.88597 9.89144 8.85188 9.97265C8.81779 10.0539 8.76786 10.1275 8.705 10.1892L8.05417 10.8308H14.5497C14.9237 10.8308 15.228 11.1306 15.228 11.5C15.228 11.8694 14.9237 12.1692 14.5497 12.1692H8.05325L8.70408 12.8108C8.76694 12.8725 8.81688 12.9461 8.85096 13.0273C8.88505 13.1086 8.90261 13.1958 8.90261 13.2838C8.90261 13.3719 8.88505 13.4591 8.85096 13.5403C8.81688 13.6215 8.76694 13.6951 8.70408 13.7568C8.57619 13.8826 8.40402 13.953 8.22467 13.953C8.04532 13.953 7.87315 13.8826 7.74525 13.7568L5.94034 11.973Z" fill="white"/>
</svg>
