<svg width="65" height="67" viewBox="0 0 65 67" fill="none" xmlns="http://www.w3.org/2000/svg">
<circle cx="50.3453" cy="22.4716" r="5.18516" fill="#FF7E5B"/>
<circle cx="15.2015" cy="22.4716" r="5.18516" fill="#FF7E5B"/>
<path d="M0.798319 32.5539L6.12751 32.1218L11.3127 31.8337L13.7612 31.2576L15.9217 30.5374L17.7941 29.6732L20.0986 28.521L21.827 26.9366L23.5554 25.0642L25.1398 23.0477L26.4361 21.0313L28.4525 16.7103L30.1809 12.9655L30.9011 12.6774L31.6212 12.9655V35.2905L31.0451 39.4674L30.469 41.3398L29.7488 44.2205L28.7406 47.2452L27.5883 50.1258L26.004 52.5743L22.6912 57.7595L18.9464 62.3685L16.9299 64.6731L15.9217 65.9693L15.7777 66.1134L15.2015 66.2574L14.9135 66.1134L14.7695 65.8253L15.3456 60.3521L16.3538 54.4468V48.9735L16.2098 44.9406L15.6336 43.6443L14.7695 41.6279L13.1851 39.8995L9.00816 37.3069C9.00816 37.3069 5.40735 35.5785 4.39913 35.2905C3.3909 35.0024 2.09461 34.2822 2.09461 34.2822L0.798319 33.8501L0.510254 33.274L0.798319 32.5539Z" fill="#FF7E5B"/>
<path d="M64.4605 32.5539L59.1313 32.1218L53.9461 31.8337L51.4976 31.2576L49.3371 30.5374L47.4647 29.6732L45.1601 28.521L43.4318 26.9366L41.7034 25.0642L40.119 23.0477L38.8227 21.0313L36.8063 16.7103L35.0779 12.9655L34.3577 12.6774L33.6376 12.9655V35.2905L34.2137 39.4674L34.7898 41.3398L35.51 44.2205L36.5182 47.2452L37.6705 50.1258L39.2548 52.5743L42.5676 57.7595L46.3124 62.3685L48.3289 64.6731L49.3371 65.9693L49.4811 66.1134L50.0572 66.2574L50.3453 66.1134L50.4893 65.8253L49.9132 60.3521L48.905 54.4468V48.9735L49.049 44.9406L49.6251 43.6443L50.4893 41.6279L52.0737 39.8995L56.2506 37.3069L60.8597 35.2905L63.1642 34.2822L64.4605 33.8501L64.7485 33.274L64.4605 32.5539Z" fill="#FF7E5B"/>
<g clip-path="url(#clip0_811_1339)">
<path d="M31.5433 2.00326C32.0907 1.02153 32.3643 0.53067 32.7735 0.53067C33.1827 0.53067 33.4562 1.02153 34.0036 2.00326L34.1454 2.25733C34.3009 2.53647 34.3787 2.67604 34.4997 2.76807C34.6207 2.86011 34.7719 2.89425 35.0744 2.96252L35.3492 3.02474C36.4121 3.26542 36.9432 3.38554 37.0698 3.79215C37.196 4.19832 36.8339 4.62221 36.1092 5.46955L35.9217 5.68863C35.716 5.9293 35.6128 6.04986 35.5665 6.1985C35.5203 6.34757 35.5359 6.50832 35.567 6.82936L35.5955 7.12189C35.7048 8.2527 35.7597 8.81788 35.4287 9.06893C35.0977 9.32041 34.5999 9.09097 33.6052 8.63294L33.3473 8.51455C33.0647 8.38405 32.9234 8.31924 32.7735 8.31924C32.6235 8.31924 32.4822 8.38405 32.1996 8.51455L31.9421 8.63294C30.947 9.09097 30.4492 9.31998 30.1187 9.06936C29.7872 8.81788 29.8421 8.2527 29.9514 7.12189L29.98 6.8298C30.0111 6.50831 30.0266 6.34757 29.98 6.19893C29.9342 6.04986 29.8309 5.9293 29.6252 5.68906L29.4377 5.46955C28.713 4.62264 28.351 4.19875 28.4771 3.79215C28.6037 3.38554 29.1352 3.26499 30.1982 3.02474L30.473 2.96252C30.775 2.89425 30.9258 2.86011 31.0472 2.76807C31.1682 2.67604 31.246 2.53647 31.4016 2.25733L31.5433 2.00326Z" fill="#FF7E5B"/>
</g>
<defs>
<clipPath id="clip0_811_1339">
<rect width="10.3703" height="9.79419" fill="white" transform="translate(27.5884 0.00256348)"/>
</clipPath>
</defs>
</svg>
