<svg width="17" height="17" viewBox="0 0 17 17" fill="none" xmlns="http://www.w3.org/2000/svg">
<path d="M12.0417 1.41669V2.83335M8.50008 1.41669V2.83335M4.95841 1.41669V2.83335M5.66675 10.625H8.50008M5.66675 7.08335H11.3334M2.47925 7.08335C2.47925 4.74585 2.47925 3.5771 3.20529 2.85106C3.93133 2.12502 5.10008 2.12502 7.43758 2.12502H9.56258C11.9001 2.12502 13.0688 2.12502 13.7949 2.85106C14.5209 3.5771 14.5209 4.74585 14.5209 7.08335V10.625C14.5209 12.9625 14.5209 14.1313 13.7949 14.8573C13.0688 15.5834 11.9001 15.5834 9.56258 15.5834H7.43758C5.10008 15.5834 3.93133 15.5834 3.20529 14.8573C2.47925 14.1313 2.47925 12.9625 2.47925 10.625V7.08335Z" stroke="#1C1F28" stroke-width="2" stroke-linecap="round" stroke-linejoin="round"/>
</svg>
