<svg width="29" height="31" viewBox="0 0 29 31" fill="none" xmlns="http://www.w3.org/2000/svg">
<path d="M20.1067 28H8.89335C7.67193 27.9541 6.53416 27.3463 5.79076 26.3427C5.04737 25.3391 4.77603 24.0445 5.05085 22.8125L5.34085 21.3875C5.67439 19.4585 7.27735 18.0409 9.17126 18H19.8288C21.7227 18.0409 23.3256 19.4585 23.6592 21.3875L23.9492 22.8125C24.224 24.0445 23.9527 25.3391 23.2093 26.3427C22.4659 27.3463 21.3281 27.9541 20.1067 28Z" fill="#7B7B7B" fill-opacity="0.5"/>
<path d="M15.1042 15.5H13.8958C11.2265 15.5 9.06251 13.2614 9.06251 10.5V7.20002C9.05929 6.08509 9.486 5.01487 10.2481 4.22649C11.0102 3.43811 12.0447 2.99669 13.1225 3.00002H15.8775C16.9553 2.99669 17.9898 3.43811 18.7519 4.22649C19.514 5.01487 19.9407 6.08509 19.9375 7.20002V10.5C19.9375 11.8261 19.4283 13.0979 18.5219 14.0356C17.6154 14.9732 16.3861 15.5 15.1042 15.5Z" fill="#7B7B7B" fill-opacity="0.5"/>
</svg>
