<svg width="15" height="19" viewBox="0 0 15 19" fill="none" xmlns="http://www.w3.org/2000/svg">
<mask id="mask0_2459_2642" style="mask-type:luminance" maskUnits="userSpaceOnUse" x="0" y="12" width="15" height="8">
<path fill-rule="evenodd" clip-rule="evenodd" d="M0 12.2751H14.4621V19.0077H0V12.2751Z" fill="white"/>
</mask>
<g mask="url(#mask0_2459_2642)">
<path fill-rule="evenodd" clip-rule="evenodd" d="M7.23189 13.6446C3.34153 13.6446 1.36942 14.3129 1.36942 15.6322C1.36942 16.9634 3.34153 17.6381 7.23189 17.6381C11.1213 17.6381 13.0925 16.9698 13.0925 15.6505C13.0925 14.3193 11.1213 13.6446 7.23189 13.6446ZM7.23199 19.0077C5.44339 19.0077 0 19.0077 0 15.6322C0 12.6229 4.12774 12.2751 7.23199 12.2751C9.02059 12.2751 14.4622 12.2751 14.4622 15.6505C14.4622 18.6598 10.3353 19.0077 7.23199 19.0077Z" fill="#7B7B7B"/>
</g>
<mask id="mask1_2459_2642" style="mask-type:luminance" maskUnits="userSpaceOnUse" x="2" y="0" width="11" height="11">
<path fill-rule="evenodd" clip-rule="evenodd" d="M2.38281 0.866089H12.0791V10.561H2.38281V0.866089Z" fill="white"/>
</mask>
<g mask="url(#mask1_2459_2642)">
<path fill-rule="evenodd" clip-rule="evenodd" d="M7.23184 2.1695C5.27707 2.1695 3.6866 3.75906 3.6866 5.71383C3.68021 7.6622 5.25881 9.25085 7.20536 9.25815L7.23184 9.91004V9.25815C9.18569 9.25815 10.7752 7.66768 10.7752 5.71383C10.7752 3.75906 9.18569 2.1695 7.23184 2.1695ZM7.23186 10.5611H7.20265C4.53482 10.5529 2.37371 8.37716 2.38284 5.71115C2.38284 3.04059 4.55764 0.865784 7.23186 0.865784C9.90517 0.865784 12.0791 3.04059 12.0791 5.71389C12.0791 8.3872 9.90517 10.5611 7.23186 10.5611Z" fill="#7B7B7B"/>
</g>
</svg>
