<svg width="23" height="24" viewBox="0 0 23 24" fill="none" xmlns="http://www.w3.org/2000/svg">
<path d="M10.0993 9.71168C10.0695 9.62213 10.0576 9.52758 10.0642 9.43342C10.0709 9.33926 10.0961 9.24734 10.1383 9.16291C10.1805 9.07848 10.239 9.00319 10.3103 8.94134C10.3816 8.8795 10.4644 8.83231 10.5539 8.80246L11.6321 8.44309C11.7401 8.40707 11.8552 8.39724 11.9678 8.41442C12.0804 8.43159 12.1873 8.47528 12.2796 8.54188C12.372 8.60847 12.4473 8.69607 12.4992 8.79746C12.5511 8.89884 12.5781 9.01111 12.5781 9.125V12.7188C12.5781 12.9094 12.5024 13.0922 12.3676 13.227C12.2328 13.3618 12.05 13.4375 11.8594 13.4375C11.6688 13.4375 11.4859 13.3618 11.3511 13.227C11.2164 13.0922 11.1406 12.9094 11.1406 12.7188V10.1223L11.0086 10.1663C10.919 10.1961 10.8245 10.2081 10.7303 10.2014C10.6361 10.1947 10.5442 10.1695 10.4598 10.1273C10.3754 10.0851 10.3001 10.0267 10.2382 9.95535C10.1764 9.88403 10.1292 9.80123 10.0993 9.71168ZM22.2812 19.1875C22.2812 19.3781 22.2055 19.5609 22.0707 19.6957C21.9359 19.8305 21.7531 19.9062 21.5625 19.9062H1.4375C1.24688 19.9062 1.06406 19.8305 0.929267 19.6957C0.794475 19.5609 0.71875 19.3781 0.71875 19.1875C0.71875 18.9969 0.794475 18.8141 0.929267 18.6793C1.06406 18.5445 1.24688 18.4688 1.4375 18.4688H2.15625V9.84375C2.15625 9.4625 2.3077 9.09687 2.57728 8.82728C2.84687 8.5577 3.2125 8.40625 3.59375 8.40625H7.1875V5.53125C7.1875 5.15 7.33895 4.78437 7.60853 4.51478C7.87812 4.2452 8.24375 4.09375 8.625 4.09375H14.375C14.7562 4.09375 15.1219 4.2452 15.3915 4.51478C15.661 4.78437 15.8125 5.15 15.8125 5.53125V12H19.4062C19.7875 12 20.1531 12.1515 20.4227 12.421C20.6923 12.6906 20.8438 13.0563 20.8438 13.4375V18.4688H21.5625C21.7531 18.4688 21.9359 18.5445 22.0707 18.6793C22.2055 18.8141 22.2812 18.9969 22.2812 19.1875ZM15.8125 13.4375V18.4688H19.4062V13.4375H15.8125ZM8.625 18.4688H14.375V5.53125H8.625V18.4688ZM3.59375 18.4688H7.1875V9.84375H3.59375V18.4688Z" fill="#1C1F28"/>
</svg>
