<svg width="22" height="22" viewBox="0 0 22 22" fill="none" xmlns="http://www.w3.org/2000/svg">
<g clip-path="url(#clip0_257_315)">
<path fill-rule="evenodd" clip-rule="evenodd" d="M5.14397 1.36562L14.009 1.36112V4.81562L5.14397 4.82012C4.74357 4.82058 4.35354 4.69284 4.03097 4.45562L2.59397 3.39512C2.54683 3.36025 2.50851 3.31481 2.48211 3.26245C2.45571 3.21008 2.44196 3.15226 2.44196 3.09362C2.44196 3.03498 2.45571 2.97715 2.48211 2.92479C2.50851 2.87243 2.54683 2.82699 2.59397 2.79212L4.03247 1.73012C4.35403 1.49297 4.74293 1.36474 5.14247 1.36412L5.14397 1.36562ZM17.6585 4.81262L15.884 4.81412V1.35962H17.6645C18.6155 1.37462 19.343 2.21912 19.343 3.08462C19.343 3.95162 18.6155 4.79762 17.6645 4.81262H17.6585ZM8.76197 8.27762C9.26447 8.47862 9.69197 8.69912 10.0625 8.91812V21.5001C9.49087 21.0706 8.86557 20.7176 8.20247 20.4501C7.09997 20.0091 5.50997 19.6446 3.08447 19.6446C2.88556 19.6446 2.69479 19.5656 2.55414 19.425C2.41349 19.2843 2.33447 19.0935 2.33447 18.8946V8.11262C2.33447 7.91371 2.41349 7.72294 2.55414 7.58229C2.69479 7.44164 2.88556 7.36262 3.08447 7.36262C5.66447 7.36262 7.44947 7.75112 8.76197 8.27762ZM13.796 20.4501C12.986 20.7756 12.4175 21.1491 11.936 21.4986V8.91812C12.3065 8.69912 12.7355 8.47862 13.238 8.27762C14.5505 7.75112 16.3355 7.36262 18.9155 7.36262C19.1144 7.36262 19.3051 7.44164 19.4458 7.58229C19.5865 7.72294 19.6655 7.91371 19.6655 8.11262V18.8946C19.6655 19.0935 19.5865 19.2843 19.4458 19.425C19.3051 19.5656 19.1144 19.6446 18.9155 19.6446C16.49 19.6446 14.9 20.0076 13.796 20.4501Z" fill="white"/>
</g>
<defs>
<clipPath id="clip0_257_315">
<rect width="21" height="21" fill="white" transform="translate(0.5 0.5)"/>
</clipPath>
</defs>
</svg>
