<svg width="21" height="21" viewBox="0 0 21 21" fill="none" xmlns="http://www.w3.org/2000/svg">
<path d="M11.0189 20.3506L11.0093 20.3524L10.9472 20.383L10.9297 20.3865L10.9174 20.383L10.8553 20.3524C10.8465 20.3489 10.8387 20.3515 10.8343 20.3568L10.8308 20.3655L10.8159 20.74L10.8203 20.7575L10.829 20.7689L10.92 20.8336L10.9332 20.8371L10.9437 20.8336L11.0347 20.7689L11.0452 20.7549L11.0487 20.74L11.0338 20.3664C11.032 20.3576 11.0259 20.3515 11.0189 20.3506ZM11.2508 20.2518L11.2394 20.2535L11.0775 20.3349L11.0688 20.3436L11.0662 20.3533L11.0819 20.7295L11.0863 20.74L11.0933 20.7461L11.2692 20.8275C11.2797 20.831 11.2893 20.8275 11.2945 20.8205L11.298 20.8083L11.2683 20.271C11.2657 20.2605 11.2595 20.2535 11.2508 20.2518ZM10.6252 20.2535C10.6212 20.2517 10.6167 20.2512 10.6125 20.2522C10.6082 20.2531 10.6044 20.2554 10.6015 20.2588L10.5963 20.271L10.5665 20.8083C10.5665 20.8188 10.5727 20.8258 10.5814 20.8293L10.5945 20.8275L10.7704 20.7461L10.7792 20.7391L10.7827 20.7295L10.7975 20.3533L10.7949 20.3428L10.7862 20.334L10.6252 20.2535Z" fill="#EF564B"/>
<path d="M10.5 1.75C11.284 1.75 12.0435 1.85325 12.7663 2.04662L10.906 3.906C10.7649 4.04769 10.6404 4.20504 10.535 4.375H10.5C9.28859 4.375 8.10438 4.73423 7.09713 5.40725C6.08988 6.08027 5.30482 7.03687 4.84124 8.15606C4.37765 9.27526 4.25636 10.5068 4.49269 11.6949C4.72902 12.8831 5.31237 13.9744 6.16897 14.831C7.02557 15.6876 8.11694 16.271 9.30507 16.5073C10.4932 16.7436 11.7247 16.6223 12.8439 16.1588C13.9631 15.6952 14.9197 14.9101 15.5928 13.9029C16.2658 12.8956 16.625 11.7114 16.625 10.5V10.465C16.793 10.36 16.9505 10.2366 17.0931 10.0931L18.9534 8.23375C19.1467 8.9565 19.25 9.716 19.25 10.5C19.25 15.3326 15.3326 19.25 10.5 19.25C5.66738 19.25 1.75 15.3326 1.75 10.5C1.75 5.66738 5.66738 1.75 10.5 1.75ZM10.1378 6.13988C10.1378 6.8845 10.101 7.63963 10.1413 8.38338L9.66875 8.85588C9.50621 9.01841 9.37728 9.21137 9.28932 9.42373C9.20136 9.63609 9.15608 9.8637 9.15608 10.0936C9.15608 10.3234 9.20136 10.551 9.28932 10.7634C9.37728 10.9758 9.50621 11.1687 9.66875 11.3313C9.83129 11.4938 10.0242 11.6227 10.2366 11.7107C10.449 11.7986 10.6766 11.8439 10.9064 11.8439C11.1363 11.8439 11.3639 11.7986 11.5763 11.7107C11.7886 11.6227 11.9816 11.4938 12.1441 11.3313L12.6166 10.8587C13.3604 10.899 14.1146 10.8622 14.8601 10.8622C14.791 11.6938 14.4855 12.4882 13.9797 13.1519C13.4739 13.8155 12.7889 14.3207 12.0054 14.6077C11.2219 14.8948 10.3727 14.9519 9.55787 14.7722C8.74304 14.5924 7.99659 14.1835 7.40657 13.5934C6.81655 13.0034 6.40756 12.257 6.22784 11.4421C6.04813 10.6273 6.10517 9.77807 6.39226 8.99459C6.67934 8.21112 7.18449 7.52608 7.84813 7.02028C8.51176 6.51447 9.3062 6.209 10.1378 6.13988ZM16.191 1.86113C16.3507 1.92734 16.4872 2.03939 16.5833 2.18313C16.6794 2.32687 16.7307 2.49585 16.7309 2.66875V4.27H18.3313C18.5043 4.27004 18.6734 4.32137 18.8173 4.41752C18.9611 4.51367 19.0733 4.65032 19.1395 4.81018C19.2057 4.97004 19.223 5.14594 19.1893 5.31565C19.1555 5.48536 19.0722 5.64125 18.9499 5.76363L15.855 8.855C15.6909 9.01911 15.4684 9.11133 15.2364 9.11137H13.125L11.5255 10.7118C11.3613 10.8759 11.1386 10.9682 10.9064 10.9682C10.6742 10.9682 10.4516 10.8759 10.2874 10.7118C10.1232 10.5476 10.031 10.3249 10.031 10.0927C10.031 9.86049 10.1232 9.63781 10.2874 9.47362L11.8878 7.875V5.76275C11.8877 5.64771 11.9103 5.53377 11.9542 5.42747C11.9982 5.32117 12.0628 5.22459 12.1441 5.14325L15.2372 2.05012C15.3596 1.92768 15.5155 1.84429 15.6853 1.81049C15.8551 1.77669 16.0311 1.79401 16.191 1.86025" fill="#EF564B"/>
</svg>
