<svg width="21" height="21" viewBox="0 0 21 21" fill="none" xmlns="http://www.w3.org/2000/svg">
<path d="M5.86863 2.88137C5.70455 2.71733 5.48203 2.62518 5.25001 2.62518C5.01799 2.62518 4.79547 2.71733 4.63139 2.88137L3.50001 4.01275L3.24364 3.75637C3.07861 3.59698 2.85758 3.50879 2.62816 3.51078C2.39874 3.51277 2.17928 3.6048 2.01704 3.76703C1.85481 3.92926 1.76279 4.14872 1.7608 4.37814C1.7588 4.60757 1.847 4.82859 2.00638 4.99362L2.88138 5.86862C3.04547 6.03266 3.26799 6.12481 3.50001 6.12481C3.73203 6.12481 3.95455 6.03266 4.11863 5.86862L5.86863 4.11862C6.03267 3.95453 6.12482 3.73201 6.12482 3.5C6.12482 3.26798 6.03267 3.04546 5.86863 2.88137ZM18.3776 14.8689H8.75001L8.64764 14.875C8.42618 14.9013 8.22313 15.0112 8.07999 15.1823C7.93685 15.3533 7.86441 15.5725 7.87748 15.7952C7.89055 16.0178 7.98814 16.227 8.15031 16.3801C8.31248 16.5332 8.52699 16.6186 8.75001 16.6189H18.3776L18.48 16.6136C18.7031 16.5891 18.9082 16.4799 19.053 16.3085C19.1978 16.1371 19.2712 15.9166 19.258 15.6926C19.2449 15.4686 19.1462 15.2582 18.9824 15.1049C18.8185 14.9516 18.602 14.8671 18.3776 14.8689ZM18.3776 9.625H8.75001L8.64764 9.63112C8.42618 9.65746 8.22313 9.76737 8.07999 9.93839C7.93685 10.1094 7.86441 10.3286 7.87748 10.5513C7.89055 10.7739 7.98814 10.9832 8.15031 11.1363C8.31248 11.2894 8.52699 11.3747 8.75001 11.375H18.3776L18.48 11.3689C18.7015 11.3425 18.9045 11.2326 19.0477 11.0616C19.1908 10.8906 19.2632 10.6714 19.2502 10.4487C19.2371 10.2261 19.1395 10.0168 18.9773 9.86374C18.8152 9.71064 18.6007 9.62524 18.3776 9.625ZM18.3776 4.375H8.75001L8.64764 4.38112C8.42618 4.40746 8.22313 4.51737 8.07999 4.68839C7.93685 4.85941 7.86441 5.07864 7.87748 5.30128C7.89055 5.52391 7.98814 5.73316 8.15031 5.88625C8.31248 6.03935 8.52699 6.12475 8.75001 6.125H18.3776L18.48 6.11887C18.7015 6.09253 18.9045 5.98262 19.0477 5.8116C19.1908 5.64058 19.2632 5.42135 19.2502 5.19872C19.2371 4.97608 19.1395 4.76684 18.9773 4.61374C18.8152 4.46064 18.6007 4.37524 18.3776 4.375ZM5.86863 14.2564C5.70455 14.0923 5.48203 14.0002 5.25001 14.0002C5.01799 14.0002 4.79547 14.0923 4.63139 14.2564L3.50001 15.3877L3.24364 15.1314C3.07861 14.972 2.85758 14.8838 2.62816 14.8858C2.39874 14.8878 2.17928 14.9798 2.01704 15.142C1.85481 15.3043 1.76279 15.5237 1.7608 15.7531C1.7588 15.9826 1.847 16.2036 2.00638 16.3686L2.88138 17.2436C3.04547 17.4077 3.26799 17.4998 3.50001 17.4998C3.73203 17.4998 3.95455 17.4077 4.11863 17.2436L5.86863 15.4936C6.03267 15.3295 6.12482 15.107 6.12482 14.875C6.12482 14.643 6.03267 14.4205 5.86863 14.2564ZM4.63139 8.56887C4.79641 8.40948 5.01744 8.32129 5.24686 8.32328C5.47628 8.32528 5.69574 8.4173 5.85798 8.57953C6.02021 8.74176 6.11223 8.96122 6.11422 9.19065C6.11622 9.42007 6.02802 9.64109 5.86863 9.80612L4.11863 11.5561C3.95455 11.7202 3.73203 11.8123 3.50001 11.8123C3.26799 11.8123 3.04547 11.7202 2.88138 11.5561L2.00638 10.6811C1.92281 10.6004 1.85615 10.5039 1.8103 10.3971C1.76444 10.2903 1.7403 10.1755 1.73929 10.0593C1.73828 9.94316 1.76042 9.82795 1.80442 9.72041C1.84841 9.61288 1.91338 9.51518 1.99554 9.43303C2.0777 9.35087 2.17539 9.2859 2.28293 9.2419C2.39046 9.19791 2.50568 9.17577 2.62186 9.17678C2.73804 9.17779 2.85286 9.20192 2.95961 9.24778C3.06637 9.29364 3.16292 9.3603 3.24364 9.44387L3.50001 9.70025L4.63139 8.56887Z" fill="#1C1F28"/>
</svg>
