<svg width="34" height="34" viewBox="0 0 34 34" fill="none" xmlns="http://www.w3.org/2000/svg">
<path d="M28.7016 21.0092V9.5625C28.7016 6.62849 26.3231 4.25 23.3891 4.25H10.9791C8.04511 4.25 5.66663 6.62849 5.66663 9.5625V24.4942C5.66663 27.0057 7.70261 29.0417 10.2141 29.0417H27.6391C28.2259 29.0417 28.7016 28.566 28.7016 27.9792C28.7016 27.3924 28.2259 26.9167 27.6391 26.9167H10.2141C8.87622 26.9167 7.79163 25.8321 7.79163 24.4942C7.79163 23.1563 8.87622 22.0717 10.2141 22.0717H27.6391C28.2259 22.0717 28.7016 21.596 28.7016 21.0092Z" fill="#7B7B7B" fill-opacity="0.5"/>
<path d="M10.2141 23.4317C9.62732 23.4317 9.15162 23.9074 9.15162 24.4942C9.15162 25.081 9.62732 25.5567 10.2141 25.5567H25.8966C26.4834 25.5567 26.9591 25.081 26.9591 24.4942C26.9591 23.9074 26.4834 23.4317 25.8966 23.4317H10.2141Z" fill="#7B7B7B" fill-opacity="0.5"/>
</svg>
